<?xml version="1.0" encoding="utf-8"?>
<!-- Generator: Adobe Illustrator 22.0.1, SVG Export Plug-In . SVG Version: 6.00 Build 0)  -->
<svg version="1.1" id="Слой_1" xmlns="http://www.w3.org/2000/svg" xmlns:xlink="http://www.w3.org/1999/xlink" x="0px" y="0px"
	 viewBox="0 0 70 60.9" style="enable-background:new 0 0 70 60.9;" xml:space="preserve">
<style type="text/css">
	.st0{fill:#7E8495;}
	.st1{fill:#E55030;}
</style>
<path class="st0" d="M65.4,0H4.6C2,0,0,2,0,4.6v51.8C0,58.9,2,61,4.6,61h60.9c2.5,0,4.6-2,4.6-4.6V4.6C70,2,68,0,65.4,0z M4.6,2
	h60.9C66.9,2,68,3.1,68,4.6v9.5H2V4.6C2,3.1,3.1,2,4.6,2z M65.4,58.9H4.6c-1.4,0-2.6-1.1-2.6-2.6V15.1h66v41.3
	C68,57.8,66.9,58.9,65.4,58.9z M6.8,7.9c0-0.6,0.4-1,1-1s1,0.4,1,1c0,0.5-0.4,1-0.9,1l0,0l0,0C7.3,8.9,6.8,8.5,6.8,7.9z M13.6,7.9
	c0-0.5,0.4-1,1-1s1,0.4,1,1c0,0.5-0.4,1-1,1l0,0C14.1,8.9,13.6,8.4,13.6,7.9z M20.4,7.9c0-0.5,0.4-1,1-1s1,0.4,1,1c0,0.5-0.4,1-1,1
	l0,0C20.9,8.9,20.4,8.4,20.4,7.9z"/>
<path class="st1" d="M22.4,44.1l-6.8-6.8l6.8-6.8l0.7,0.7L17,37.3l6.1,6.1L22.4,44.1z M54.4,37.3l-6.8-6.8l-0.7,0.7l6.1,6.1
	l-6.1,6.1l0.7,0.7L54.4,37.3z M40.9,28.3L40,27.8L29.4,46.2l0.9,0.5L40.9,28.3z"/>
</svg>
