<?xml version="1.0" encoding="utf-8"?>
<!-- Generator: Adobe Illustrator 22.0.1, SVG Export Plug-In . SVG Version: 6.00 Build 0)  -->
<svg version="1.1" id="Слой_1" xmlns="http://www.w3.org/2000/svg" xmlns:xlink="http://www.w3.org/1999/xlink" x="0px" y="0px"
	 viewBox="0 0 70 60.9" style="enable-background:new 0 0 70 60.9;" xml:space="preserve">
<style type="text/css">
	.st0{fill:#7E8495;}
	.st1{fill:#E55030;}
</style>
<path class="st0" d="M65.4,0H4.6C2,0,0,2,0,4.6v51.8c0,2.5,2,4.6,4.6,4.6h60.9c2.5,0,4.6-2,4.6-4.6V4.6C70,2,68,0,65.4,0z M4.6,2
	h60.9C66.9,2,68,3.1,68,4.6v9.5H2V4.6C2,3.1,3.1,2,4.6,2z M65.4,58.9H4.6c-1.4,0-2.6-1.1-2.6-2.6V15.1h66v41.3
	C68,57.8,66.9,58.9,65.4,58.9z M6.8,7.9c0-0.6,0.4-1,1-1c0.6,0,1,0.4,1,1c0,0.5-0.4,1-0.9,1v0c0,0,0,0,0,0C7.3,8.9,6.8,8.5,6.8,7.9z
	 M13.6,7.9c0-0.5,0.4-1,1-1c0.6,0,1,0.4,1,1c0,0.5-0.4,1-1,1h0C14.1,8.9,13.6,8.4,13.6,7.9z M20.4,7.9c0-0.5,0.4-1,1-1
	c0.6,0,1,0.4,1,1c0,0.5-0.4,1-1,1h0C20.9,8.9,20.4,8.4,20.4,7.9z"/>
<path class="st1" d="M55.7,20.9c-2.4,0-4.4,2-4.4,4.4c0,1,0.4,2,1,2.7l-5.9,5.9c-0.7-0.6-1.7-1-2.7-1c-2.2,0-4.1,1.7-4.3,3.9h-8.3
	c-0.3-2.2-2.1-3.9-4.3-3.9c-2.4,0-4.4,2-4.4,4.4c0,1,0.4,2,1,2.7l-5.9,5.9c-0.7-0.6-1.7-1-2.7-1c-2.4,0-4.4,2-4.4,4.4s2,4.4,4.4,4.4
	c2.4,0,4.4-2,4.4-4.4c0-1-0.4-2-1-2.7l5.9-5.9c0.7,0.6,1.7,1,2.7,1c2.2,0,4.1-1.7,4.3-3.9h8.3c0.3,2.2,2.1,3.9,4.3,3.9
	c2.4,0,4.4-2,4.4-4.4c0-1-0.4-2-1-2.7l5.9-5.9c0.7,0.6,1.7,1,2.7,1c2.4,0,4.4-2,4.4-4.4S58.1,20.9,55.7,20.9z M14.8,52.6
	c-1.9,0-3.4-1.5-3.4-3.4c0-1.9,1.5-3.4,3.4-3.4c1.9,0,3.4,1.5,3.4,3.4C18.2,51.1,16.7,52.6,14.8,52.6z M26.8,40.6
	c-1.9,0-3.4-1.5-3.4-3.4s1.5-3.4,3.4-3.4c1.9,0,3.4,1.5,3.4,3.4S28.6,40.6,26.8,40.6z M43.8,40.6c-1.9,0-3.4-1.5-3.4-3.4
	s1.5-3.4,3.4-3.4c1.9,0,3.4,1.5,3.4,3.4S45.6,40.6,43.8,40.6z M55.7,28.7c-1.9,0-3.4-1.5-3.4-3.4s1.5-3.4,3.4-3.4
	c1.9,0,3.4,1.5,3.4,3.4S57.6,28.7,55.7,28.7z"/>
</svg>
