<?xml version="1.0" encoding="utf-8"?>
<!-- Generator: Adobe Illustrator 22.0.1, SVG Export Plug-In . SVG Version: 6.00 Build 0)  -->
<svg version="1.1" id="Слой_1" xmlns="http://www.w3.org/2000/svg" xmlns:xlink="http://www.w3.org/1999/xlink" x="0px" y="0px"
	 viewBox="0 0 63.2 63.2" style="enable-background:new 0 0 63.2 63.2;" xml:space="preserve">
<style type="text/css">
	.st0{fill:#E55030;}
	.st1{fill:#7E8495;}
</style>
<path class="st0" d="M18.6,34.2c-1.4,0-2.5-1.1-2.6-2.5l0-0.1c0-1.4,1.1-2.6,2.5-2.6c1.4,0,2.6,1.2,2.6,2.6c0,1.4-1.1,2.5-2.4,2.6v0
	C18.6,34.2,18.6,34.2,18.6,34.2z M18.5,30c-0.9,0-1.6,0.7-1.6,1.6c0,0.9,0.7,1.6,1.6,1.6v0c0.9,0,1.6-0.7,1.6-1.6
	C20.1,30.7,19.4,30,18.5,30z M31.6,34.2L31.6,34.2c-1.5,0-2.6-1.2-2.6-2.6c0-1.4,1.1-2.6,2.5-2.6c1.4,0,2.6,1.2,2.6,2.6
	C34.2,33,33.1,34.2,31.6,34.2L31.6,34.2z M31.6,30c-0.9,0-1.6,0.7-1.6,1.6c0,0.9,0.7,1.6,1.6,1.6c0.9,0,1.6-0.7,1.6-1.6
	C33.2,30.7,32.5,30,31.6,30z M44.7,34.2L44.7,34.2c-1.5,0-2.6-1.2-2.6-2.6c0-1.4,1.1-2.6,2.5-2.6c1.4,0,2.6,1.2,2.6,2.6
	C47.2,33,46.1,34.2,44.7,34.2L44.7,34.2z M44.6,30c-0.9,0-1.6,0.7-1.6,1.6c0,0.9,0.7,1.6,1.6,1.6c0.9,0,1.6-0.7,1.6-1.6
	C46.2,30.7,45.5,30,44.6,30z"/>
<path class="st1" d="M31.6,63.2C14.2,63.2,0,49,0,31.6C0,14.2,14.2,0,31.6,0C49,0,63.2,14.2,63.2,31.6C63.2,49,49,63.2,31.6,63.2z
	 M31.6,2C15.3,2,2,15.3,2,31.6c0,16.3,13.3,29.6,29.6,29.6c16.3,0,29.6-13.3,29.6-29.6C61.2,15.3,47.9,2,31.6,2z"/>
</svg>
