<?xml version="1.0" encoding="utf-8"?>
<!-- Generator: Adobe Illustrator 22.0.1, SVG Export Plug-In . SVG Version: 6.00 Build 0)  -->
<svg version="1.1" id="Слой_1" xmlns="http://www.w3.org/2000/svg" xmlns:xlink="http://www.w3.org/1999/xlink" x="0px" y="0px"
	 viewBox="0 0 68.7 68.6" style="enable-background:new 0 0 68.7 68.6;" xml:space="preserve">
<style type="text/css">
	.st0{fill:#7E8495;}
	.st1{fill:#E55030;}
</style>
<path class="st0" d="M68.7,21.6H55.6L48,8.5c0.8-1.8,0.6-3.8-0.3-5.5c-0.8-1.4-2.1-2.4-3.7-2.8c-1.6-0.4-3.2-0.2-4.6,0.6
	c-2.9,1.7-3.9,5.4-2.2,8.4c1,1.7,2.7,2.8,4.7,3l5.4,9.4H22.1l5.4-9.4c1.9-0.2,3.7-1.3,4.7-3c0.9-1.6,1.1-3.5,0.4-5.2
	c-0.7-1.7-2.1-3.1-3.9-3.6c-2.3-0.7-4.8,0-6.4,1.7c-1.6,1.8-2,4.3-1.1,6.5l-7.6,13.1H0v6.4h3.3l4.7,36c0.3,2.6,2.6,4.5,5.2,4.5h42.8
	c2.6,0,4.8-2,5.2-4.5l4.7-36h2.9V21.6z M42.9,10.2l-0.6,0c-1.5,0-2.8-0.8-3.5-2.1c-1.1-2-0.5-4.5,1.5-5.6c1-0.6,2.1-0.7,3.1-0.4
	c1.1,0.3,1.9,1,2.5,1.9c0.7,1.2,0.7,2.8,0.1,4l-0.3,0.5l7.6,13h-3.8L42.9,10.2z M23.5,8.6l-0.3-0.5c-0.8-1.5-0.6-3.4,0.6-4.7
	c0.8-0.9,1.9-1.4,3-1.4c0.4,0,0.8,0.1,1.2,0.2c1.2,0.4,2.2,1.3,2.6,2.5c0.4,1.2,0.3,2.5-0.3,3.5c-0.7,1.3-2.1,2.1-3.5,2.1l-0.6,0
	L13.8,32c-0.1,0.1-0.2,0.2-0.3,0.3c-0.1,0-0.3,0-0.4-0.1l-1.9-1.1c-0.1-0.1-0.2-0.2-0.3-0.3c0-0.1,0-0.3,0.1-0.4L23.5,8.6z M2,23.6
	h10.5l-1.4,2.4H2V23.6z M59.1,63.8c-0.2,1.6-1.6,2.8-3.2,2.8H13.1c-1.6,0-3-1.2-3.2-2.8L5.3,28.1h4.6l-0.7,1.3
	c-0.3,0.6-0.4,1.3-0.3,1.9c0.2,0.7,0.6,1.2,1.2,1.6l1.9,1.1c0.4,0.2,0.8,0.3,1.3,0.3c0.2,0,0.4,0,0.7-0.1c0.7-0.2,1.2-0.6,1.6-1.2
	l2.8-4.9h45.4L59.1,63.8z M66.7,26.1H19.5l1.4-2.4h45.8V26.1z M19.2,57.1V37.6h1v19.5H19.2z M26.1,57.1h-1V37.6h1V57.1z M43.9,57.1
	h-1V37.6h1V57.1z M49.9,57.1h-1V37.6h1V57.1z"/>
<path class="st1" d="M32.1,57.1h-1V37.6h1V57.1z M38,37.6h-1v19.5h1V37.6z"/>
</svg>
