<?xml version="1.0" encoding="utf-8"?>
<!-- Generator: Adobe Illustrator 22.0.1, SVG Export Plug-In . SVG Version: 6.00 Build 0)  -->
<svg version="1.1" id="Слой_1" xmlns="http://www.w3.org/2000/svg" xmlns:xlink="http://www.w3.org/1999/xlink" x="0px" y="0px"
	 viewBox="0 0 63.8 70.4" style="enable-background:new 0 0 63.8 70.4;" xml:space="preserve">
<style type="text/css">
	.st0{fill:#E55030;}
	.st1{fill:#7E8495;}
</style>
<path class="st0" d="M14.8,25H9.3v-4.5h5.5V25z M10.3,24h3.5v-3.5h-3.5V24z M54.6,25h-5.5v-4.5h5.5V25z M50.1,24h3.5v-3.5h-3.5V24z
	 M39.1,55.3l-0.7-0.7L27.3,64.7l0.7,0.7L39.1,55.3z M38.1,48.3l-0.7-0.7L24,59.9l0.7,0.7L38.1,48.3z"/>
<path class="st1" d="M59.7,7.8h-16V2.9c0-1.6-1.3-2.9-2.9-2.9H22.8c-1.6,0-2.9,1.3-2.9,2.9v4.9H4.1C1.9,7.8,0,9.7,0,11.9v33
	C0,47.2,1.9,49,4.1,49h20.7L23,62.3l8.9,8.1l8.8-8.1L38.9,49h20.8c2.3,0,4.1-1.9,4.1-4.1v-33C63.8,9.7,62,7.8,59.7,7.8z M21.9,2.9
	c0-0.5,0.4-0.9,0.9-0.9h17.9c0.5,0,0.9,0.4,0.9,0.9v4.9H21.9V2.9z M4.1,9.8h15.8h23.8h16c1.2,0,2.1,1,2.1,2.1v7.6H37l0.7-3.9
	c0.1-0.6-0.1-1.1-0.4-1.6c-0.4-0.4-0.9-0.7-1.5-0.7H28c-0.6,0-1.1,0.3-1.5,0.7c-0.4,0.4-0.5,1-0.4,1.6l0.7,3.9H2v-7.6
	C2,10.8,3,9.8,4.1,9.8z M34.7,21.2h-5.6L28,15.4l7.7-0.1L34.7,21.2z M4.1,47C3,47,2,46.1,2,44.9V20.5h24.9l0.2,1.1
	c0.1,0.7,0.6,1.3,1.2,1.5L25.1,47H4.1z M31.9,67.6l-6.8-6.1l5.2-38.3h3l5.2,38.3L31.9,67.6z M59.7,47h-21l-3.3-23.9
	c0.6-0.2,1.1-0.8,1.3-1.5l0.2-1.1h25v24.4C61.8,46.1,60.9,47,59.7,47z"/>
</svg>
