<?xml version="1.0" encoding="utf-8"?>
<!-- Generator: Adobe Illustrator 22.0.1, SVG Export Plug-In . SVG Version: 6.00 Build 0)  -->
<svg version="1.1" id="Слой_1" xmlns="http://www.w3.org/2000/svg" xmlns:xlink="http://www.w3.org/1999/xlink" x="0px" y="0px"
	 viewBox="0 0 69.4 69.8" style="enable-background:new 0 0 69.4 69.8;" xml:space="preserve">
<style type="text/css">
	.st0{fill:#7E8495;}
	.st1{fill:#E55030;}
</style>
<path class="st0" d="M68.4,0C55.4,0,44.5,4.5,35.4,13.7c-2.5,2.5-4.8,5.1-6.9,7.8c-2.4-1.2-9.6-3.8-17.9,4.5
	c-7.7,7.7-9.7,14.7-9.7,15L0,44l2.4-2c0.1-0.1,10.5-8.7,15.3-4.3c-2.9,5.1-4.5,8.8-4.7,9.1l-0.3,0.6l9.1,9.1l0.6-0.3
	c0.2-0.1,2.2-1,5.2-2.5L28,54l0.7-0.7l0,0c0.9-0.5,1.9-1,3-1.6c5.2,4.6-3.8,15.6-3.9,15.7l-2,2.4l3-0.8c0.3-0.1,7.2-2,15-9.7
	c8.9-8.9,5.3-16.6,4.3-18.4c2.7-2.1,5.3-4.4,7.7-6.8c9.2-9.2,13.7-20,13.7-33.1V0H68.4z M4,38.4c1.3-2.6,3.7-6.7,8-11
	c7.2-7.2,13.1-5.4,15.3-4.4c-3.4,4.5-6.2,9-8.5,12.9C14.5,32.5,7.8,35.9,4,38.4z M22.4,54.2L15.2,47c0.3-0.7,1-2.1,1.9-3.9l9.1,9.1
	C24.5,53.2,23.1,53.9,22.4,54.2z M17.6,42.2c0.6-1.1,1.2-2.3,1.9-3.6l11.2,11.2c-1.3,0.7-2.5,1.4-3.6,1.9L17.6,42.2z M42.3,57.8
	c-4.3,4.3-8.3,6.7-11,8c2.6-3.9,6.1-10.9,2.1-15.1c3.9-2.3,8.5-5.2,13-8.6C47.4,43.8,50.1,50.1,42.3,57.8z M54.3,32.6
	c-7.2,7.2-16,13-22.7,16.8L20,37.8c3.8-6.7,9.6-15.5,16.8-22.7C40.8,11,45.2,7.9,50,5.8l13.6,13.6C61.5,24.2,58.4,28.6,54.3,32.6z
	 M64.1,18.4L51,5.3C56,3.2,61.5,2.1,67.4,2C67.3,8,66.2,13.4,64.1,18.4z"/>
<path class="st1" d="M45.3,27c-0.8,0-1.5-0.3-2.1-0.9c-0.6-0.6-0.9-1.3-0.9-2.1c0-0.8,0.3-1.5,0.9-2.1c1.1-1.1,3.1-1.1,4.2,0
	c0.6,0.6,0.9,1.3,0.9,2.1c0,0.8-0.3,1.5-0.9,2.1l0,0l0,0l0,0C46.9,26.7,46.1,27,45.3,27z M45.3,22.1c-0.5,0-1,0.2-1.4,0.6
	c-0.4,0.4-0.6,0.9-0.6,1.4c0,0.5,0.2,1,0.6,1.4c0.7,0.7,2,0.7,2.8,0l0,0c0.4-0.4,0.6-0.9,0.6-1.4c0-0.5-0.2-1-0.6-1.4
	C46.4,22.3,45.9,22.1,45.3,22.1z M45.3,31.2c-1.8,0-3.7-0.7-5.1-2.1c-2.8-2.8-2.8-7.3,0-10.1c2.8-2.8,7.4-2.8,10.1,0
	c2.8,2.8,2.8,7.3,0,10.1C49,30.5,47.2,31.2,45.3,31.2z M45.3,17.9c-1.6,0-3.2,0.6-4.4,1.8c-2.4,2.4-2.4,6.3,0,8.7
	c2.4,2.4,6.3,2.4,8.7,0c2.4-2.4,2.4-6.3,0-8.7C48.5,18.5,46.9,17.9,45.3,17.9z M12,51.4l-0.7-0.7l-5.4,5.4l0.7,0.7L12,51.4z
	 M15.3,54.8l-0.7-0.7L3.8,64.9l0.7,0.7L15.3,54.8z M18.7,58.2L18,57.4L9.4,66l0.7,0.7L18.7,58.2z"/>
</svg>
