<?xml version="1.0" encoding="utf-8"?>
<!-- Generator: Adobe Illustrator 22.0.1, SVG Export Plug-In . SVG Version: 6.00 Build 0)  -->
<svg version="1.1" id="Слой_1" xmlns="http://www.w3.org/2000/svg" xmlns:xlink="http://www.w3.org/1999/xlink" x="0px" y="0px"
	 viewBox="0 0 70.2 69.8" style="enable-background:new 0 0 70.2 69.8;" xml:space="preserve">
<style type="text/css">
	.st0{fill:#E55030;}
	.st1{fill:#7E8495;}
</style>
<g>
	<path class="st0" d="M27.1,38.8h1v10.1h-1V38.8z M34.6,48.9h1V38.8h-1V48.9z M42.2,38.8v10.1h1V38.8H42.2z M27.1,64.9h1v-8.2h-1
		V64.9z M34.6,64.9h1v-8.2h-1V64.9z M42.2,64.9h1v-8.2h-1V64.9z M35.5,6.9h-1V0h8.3v4.4l-7.3,0V6.9z M35.5,3.3l6.3,0V1h-6.3V3.3z"/>
	<path class="st1" d="M65.9,67.8V37.2h-7.4V33h-8.1v-4.7l-3.3-3.2h-1.5v-2.2c0-4.1-2.4-7.7-6-9.4h0v-3c0-2.5-2.1-4.6-4.6-4.6
		c-2.5,0-4.6,2.1-4.6,4.6v3h0c-3.5,1.7-6,5.2-6,9.4v2.2h-1.4l-3.3,3.2V33h-8.1v4.3H4.2v30.5H0v2h4.2h7.4h46.8h7.4h4.3v-2H65.9z
		 M32.5,10.5c0-1.4,1.2-2.6,2.6-2.6s2.6,1.2,2.6,2.6v2.3c-0.8-0.2-1.6-0.3-2.4-0.3h-0.3c-0.8,0-1.6,0.1-2.4,0.3V10.5z M26.5,22.8
		c0-4.6,3.8-8.4,8.4-8.4h0.3c4.6,0,8.4,3.8,8.4,8.4v2.2H26.5V22.8z M21.7,29.1l2.1-2.1h0.6h21.1h0.7l2.1,2.1V33H21.7V29.1z M19.7,35
		h30.7h6.1v17.9H13.7V35H19.7z M6.2,67.8V39.2h5.4v28.5H6.2z M13.7,67.8V53.9h42.8v13.9H13.7z M58.5,67.8V39.2h5.4v28.5H58.5z
		 M20.5,48.9h-1V38.8h1V48.9z M50.7,48.9h-1V38.8h1V48.9z M19.5,56.7h1v8.2h-1V56.7z M49.7,56.7h1v8.2h-1V56.7z"/>
</g>
</svg>
