<?xml version="1.0" encoding="utf-8"?>
<!-- Generator: Adobe Illustrator 22.0.1, SVG Export Plug-In . SVG Version: 6.00 Build 0)  -->
<svg version="1.1" id="Слой_1" xmlns="http://www.w3.org/2000/svg" xmlns:xlink="http://www.w3.org/1999/xlink" x="0px" y="0px"
	 viewBox="0 0 68.5 63.8" style="enable-background:new 0 0 68.5 63.8;" xml:space="preserve">
<style type="text/css">
	.st0{fill:#E55030;}
	.st1{fill:#7E8495;}
</style>
<path class="st0" d="M42.8,36.9l0.9,0.5c-1.9,3.2-5.4,5.2-9.2,5.2c-5.9,0-10.6-4.8-10.6-10.6s4.8-10.6,10.6-10.6
	c3.8,0,7.2,1.9,9.1,5.1L42.7,27c-1.8-2.9-4.8-4.7-8.3-4.7c-5.3,0-9.6,4.3-9.6,9.6c0,5.3,4.3,9.6,9.6,9.6
	C37.9,41.6,41.1,39.8,42.8,36.9z M65.4,31.9c0,1.6-1.3,2.9-2.9,2.9c-1.4,0-2.5-1-2.8-2.2H33.8l3.2,3.2l-0.7,0.7L31.9,32l4.4-4.4
	l0.7,0.7l-3.2,3.2h25.9c0.2-1.4,1.4-2.5,2.8-2.5C64.1,29,65.4,30.3,65.4,31.9z M64.4,31.9c0-1-0.8-1.9-1.9-1.9c-1,0-1.9,0.8-1.9,1.9
	c0,1,0.8,1.9,1.9,1.9C63.5,33.7,64.4,32.9,64.4,31.9z"/>
<path class="st1" d="M18,28c0.4-1.8,1.1-3.4,2.1-5l-2.3-3l4.8-4.8l3,2.3c1.6-1,3.2-1.7,5-2.1l0.5-3.8h6.8l0.5,3.7
	c1.8,0.4,3.4,1.1,5,2.1l3-2.3l4.8,4.8l-2.3,3c0.7,1.1,1.2,2.2,1.6,3.4l-1.9,0.6c-0.4-1.3-1-2.5-1.8-3.6l-0.4-0.6l2.1-2.8l-2.3-2.3
	l-2.8,2.1l-0.6-0.4c-1.7-1.1-3.5-1.9-5.5-2.3l-0.7-0.1l-0.5-3.4h-3.3l-0.5,3.4l-0.7,0.1c-2,0.4-3.9,1.2-5.6,2.3L25.5,20l-2.8-2.1
	l-2.3,2.3l2.1,2.7l-0.4,0.6c-1.1,1.7-1.9,3.5-2.3,5.5l-0.1,0.7l-3.4,0.5v3.3l3.5,0.4l0.1,0.7c0.4,2,1.2,3.8,2.3,5.5l0.4,0.6
	l-2.1,2.8l2.3,2.3l2.8-2.1l0.6,0.4c1.7,1.1,3.5,1.9,5.5,2.3l0.7,0.1l0.5,3.4h3.3l0.4-3.4l0.7-0.1c2-0.4,3.8-1.2,5.5-2.3l0.6-0.4
	l2.8,2.1l2.3-2.3l-2.1-2.8l0.4-0.6c0.7-1,1.3-2.2,1.7-3.4l1.9,0.7c-0.4,1.1-0.9,2.2-1.5,3.2l2.3,3l-4.8,4.8l-3.1-2.3
	c-1.5,0.9-3.2,1.6-4.9,2.1l-0.5,3.8h-6.7l-0.6-3.8c-1.7-0.4-3.4-1.1-4.9-2l-3,2.3l-4.8-4.7l2.2-3.1c-1-1.5-1.6-3.2-2.1-5l-3.8-0.5
	v-6.7L18,28z M68.5,0v2H49.4l-3.5,3.5h-8.6c-0.4,1.1-1.4,1.8-2.7,1.8c-1.2,0-2.2-0.8-2.7-1.8h-8.4L20,2H0.5V0h20.4l3.5,3.5h7.6
	c0.4-1.1,1.4-1.9,2.7-1.9c1.2,0,2.3,0.8,2.7,1.9h7.8L48.6,0H68.5z M36.5,4.5c0-1-0.8-1.9-1.9-1.9s-1.9,0.8-1.9,1.9s0.8,1.9,1.9,1.9
	S36.5,5.5,36.5,4.5z M49.4,61.8h19.1v2H48.6l-3.5-3.5h-7.8c-0.4,1.1-1.4,1.9-2.7,1.9c-1.2,0-2.3-0.8-2.7-1.9h-7.6l-3.5,3.5H0.5v-2
	H20l3.5-3.5h8.4c0.4-1.1,1.4-1.8,2.7-1.8c1.2,0,2.2,0.8,2.7,1.8h8.6L49.4,61.8z M36.5,59.3c0-1-0.8-1.9-1.9-1.9s-1.9,0.8-1.9,1.9
	c0,1,0.8,1.9,1.9,1.9S36.5,60.3,36.5,59.3z M9.2,55.6H0V32v-0.1V8.2h9.2c0.4-1.1,1.4-1.9,2.7-1.9c1.6,0,2.9,1.3,2.9,2.9
	c0,1.6-1.3,2.9-2.9,2.9c-1.2,0-2.3-0.8-2.7-1.9H2v21.6V32v21.6h7.2c0.4-1.1,1.4-1.9,2.7-1.9c1.6,0,2.9,1.3,2.9,2.9s-1.3,2.9-2.9,2.9
	C10.7,57.5,9.6,56.7,9.2,55.6z M10,54.6c0,1,0.8,1.9,1.9,1.9s1.9-0.8,1.9-1.9s-0.8-1.9-1.9-1.9S10,53.6,10,54.6z M10,9.2
	c0,1,0.8,1.9,1.9,1.9s1.9-0.8,1.9-1.9s-0.8-1.9-1.9-1.9S10,8.2,10,9.2z"/>
</svg>
