<?xml version="1.0" encoding="utf-8"?>
<!-- Generator: Adobe Illustrator 22.0.1, SVG Export Plug-In . SVG Version: 6.00 Build 0)  -->
<svg version="1.1" id="Слой_1" xmlns="http://www.w3.org/2000/svg" xmlns:xlink="http://www.w3.org/1999/xlink" x="0px" y="0px"
	 viewBox="0 0 70 60.9" style="enable-background:new 0 0 70 60.9;" xml:space="preserve">
<style type="text/css">
	.st0{fill:#7E8495;}
	.st1{fill:#E55030;}
</style>
<path class="st0" d="M65.4,0H4.6C2,0,0,2,0,4.6v51.8c0,2.5,2,4.6,4.6,4.6h60.9c2.5,0,4.6-2,4.6-4.6V4.6C70,2,68,0,65.4,0z M4.6,2
	h60.9C66.9,2,68,3.1,68,4.6v9.5H2V4.6C2,3.1,3.1,2,4.6,2z M65.4,58.9H4.6c-1.4,0-2.6-1.1-2.6-2.6V15.1h66v41.3
	C68,57.8,66.9,58.9,65.4,58.9z M6.8,7.9c0-0.6,0.4-1,1-1c0.6,0,1,0.4,1,1c0,0.5-0.4,1-0.9,1v0c0,0,0,0,0,0C7.3,8.9,6.8,8.5,6.8,7.9z
	 M13.6,7.9c0-0.5,0.4-1,1-1c0.6,0,1,0.4,1,1c0,0.5-0.4,1-1,1h0C14.1,8.9,13.6,8.4,13.6,7.9z M20.4,7.9c0-0.5,0.4-1,1-1
	c0.6,0,1,0.4,1,1c0,0.5-0.4,1-1,1h0C20.9,8.9,20.4,8.4,20.4,7.9z M12.5,53.6h8.7V32.9h-8.7V53.6z M13.5,33.9h6.7v18.7h-6.7V33.9z
	 M24.5,53.6h8.7V42.8h-8.7V53.6z M25.5,43.8h6.7v8.9h-6.7V43.8z M48.5,53.6h8.7V27.1h-8.7V53.6z M49.5,28.1h6.7v24.5h-6.7V28.1z"/>
<path class="st1" d="M45.3,53.6h-8.7V20.3h8.7V53.6z M37.5,52.6h6.7V21.3h-6.7V52.6z"/>
</svg>
