<?xml version="1.0" encoding="utf-8"?>
<!-- Generator: Adobe Illustrator 22.0.1, SVG Export Plug-In . SVG Version: 6.00 Build 0)  -->
<svg version="1.1" id="Слой_1" xmlns="http://www.w3.org/2000/svg" xmlns:xlink="http://www.w3.org/1999/xlink" x="0px" y="0px"
	 viewBox="0 0 70 60.9" style="enable-background:new 0 0 70 60.9;" xml:space="preserve">
<style type="text/css">
	.st0{fill:#E55030;}
	.st1{fill:#7E8495;}
</style>
<path class="st0" d="M64.6,45.8H5.4v-7.6h59.2V45.8z M6.4,44.8h57.2v-5.6H6.4V44.8z"/>
<path class="st1" d="M65.4,0H4.6C2,0,0,2,0,4.6v51.8c0,2.5,2,4.6,4.6,4.6h60.9c2.5,0,4.6-2,4.6-4.6V4.6C70,2,68,0,65.4,0z M4.6,2
	h60.9C66.9,2,68,3.1,68,4.6v9.5H2V4.6C2,3.1,3.1,2,4.6,2z M65.4,58.9H4.6c-1.4,0-2.6-1.1-2.6-2.6V15.1h66v41.3
	C68,57.8,66.9,58.9,65.4,58.9z M6.8,7.9c0-0.6,0.4-1,1-1c0.6,0,1,0.4,1,1c0,0.5-0.4,1-0.9,1v0c0,0,0,0,0,0C7.3,8.9,6.8,8.5,6.8,7.9z
	 M13.6,7.9c0-0.5,0.4-1,1-1c0.6,0,1,0.4,1,1c0,0.5-0.4,1-1,1h0C14.1,8.9,13.6,8.4,13.6,7.9z M20.4,7.9c0-0.5,0.4-1,1-1
	c0.6,0,1,0.4,1,1c0,0.5-0.4,1-1,1h0C20.9,8.9,20.4,8.4,20.4,7.9z M5.4,35.4h59.2V18.5H5.4V35.4z M63.6,34.4H48.7V19.5h14.9V34.4z
	 M6.4,19.5h41.3v14.9H6.4V19.5z M55.1,29.6c0.8,0,1.6-0.3,2.2-0.7l2.8,2.8l0.7-0.7L58,28.2c0.5-0.6,0.7-1.3,0.7-2.2
	c0-2-1.6-3.6-3.6-3.6S51.5,24,51.5,26S53.1,29.6,55.1,29.6z M55.1,23.4c1.4,0,2.6,1.2,2.6,2.6s-1.2,2.6-2.6,2.6s-2.6-1.2-2.6-2.6
	S53.6,23.4,55.1,23.4z M5.4,56.1h59.2v-7.6H5.4V56.1z M6.4,49.5h57.2v5.6H6.4V49.5z"/>
</svg>
