<?xml version="1.0" encoding="utf-8"?>
<!-- Generator: Adobe Illustrator 22.0.1, SVG Export Plug-In . SVG Version: 6.00 Build 0)  -->
<svg version="1.1" id="Слой_1" xmlns="http://www.w3.org/2000/svg" xmlns:xlink="http://www.w3.org/1999/xlink" x="0px" y="0px"
	 viewBox="0 0 70 66.2" style="enable-background:new 0 0 70 66.2;" xml:space="preserve">
<style type="text/css">
	.st0{fill:#7E8495;}
	.st1{fill:#E55030;}
</style>
<path class="st0" d="M25.8,6.1H23v-1h2.8V6.1z M40.2,5.1h-9v1h9V5.1z M31.2,61.2h9v-1h-9V61.2z M70,18.9v13.3c0,2.1-1.7,3.9-3.9,3.9
	H54.7v25.1c0,2.8-2.3,5.1-5.1,5.1H20.3c-2.8,0-5.1-2.3-5.1-5.1V47.6H3.9c-2.1,0-3.9-1.7-3.9-3.9V30.5c0-2.1,1.7-3.9,3.9-3.9h11.4
	V5.1c0-2.8,2.3-5.1,5.1-5.1h29.3c2.8,0,5.1,2.3,5.1,5.1v10h11.5C68.3,15.1,70,16.8,70,18.9z M17.3,5.1v4.7h35.4V5.1
	c0-1.7-1.4-3.1-3.1-3.1H20.3C18.7,2,17.3,3.4,17.3,5.1z M17.3,26.6h11c2.1,0,3.9,1.7,3.9,3.9v13.3c0,2.1-1.7,3.9-3.9,3.9h-2.7v7.1
	l-8.3-6.2v7h35.4V37.1l-8.3,6.1v-7.1h-2.7c-2.1,0-3.9-1.7-3.9-3.9V18.9c0-2.1,1.7-3.9,3.9-3.9h10.9v-4.3H17.3V26.6z M3.9,45.6h12.8
	l6.9,5.2v-5.2h4.7c1,0,1.9-0.8,1.9-1.9V30.5c0-1-0.8-1.9-1.9-1.9H3.9c-1,0-1.9,0.8-1.9,1.9v13.3C2,44.8,2.8,45.6,3.9,45.6z
	 M52.7,61.2v-4.6H17.3v4.6c0,1.7,1.4,3.1,3.1,3.1h29.3C51.3,64.2,52.7,62.9,52.7,61.2z M68,18.9c0-1-0.8-1.9-1.9-1.9H41.7
	c-1,0-1.9,0.8-1.9,1.9v13.3c0,1,0.8,1.9,1.9,1.9h4.7v5.2l6.9-5.2h12.8c1,0,1.9-0.8,1.9-1.9V18.9z"/>
<path class="st1" d="M59.7,20.7c-0.7-0.8-1.8-1.2-2.9-1.2c-0.8,0-1.6,0.3-2.2,0.8c-0.3,0.3-0.6,0.6-0.9,0.9
	c-0.3-0.4-0.6-0.7-0.9-0.9c-0.7-0.5-1.4-0.8-2.2-0.8c-1.1,0-2.1,0.4-2.9,1.2c-0.7,0.8-1.1,1.9-1.1,3c0,1.2,0.4,2.3,1.4,3.5
	c0.9,1,2.1,2.1,3.5,3.3c0.5,0.4,1,0.9,1.6,1.4c0.2,0.1,0.3,0.2,0.6,0.2c0.2,0,0.4-0.1,0.6-0.2c0.6-0.5,1.1-1,1.6-1.4
	c1.4-1.2,2.7-2.3,3.5-3.3c1-1.2,1.4-2.3,1.4-3.5C60.8,22.6,60.4,21.5,59.7,20.7z M58.6,26.6c-0.8,1-2,2-3.4,3.2
	c-0.5,0.4-1,0.8-1.5,1.3c-0.5-0.5-1.1-0.9-1.5-1.3c-1.4-1.2-2.6-2.2-3.4-3.2c-0.8-1-1.2-1.9-1.2-2.8c0-0.9,0.3-1.8,0.9-2.4
	c0.5-0.6,1.3-0.9,2.1-0.9c0.6,0,1.1,0.2,1.6,0.6c0.3,0.2,0.5,0.4,0.7,0.7l0.8,1.1l0.8-1.1c0.2-0.3,0.4-0.5,0.7-0.7
	c0.5-0.4,1-0.6,1.6-0.6c0.8,0,1.6,0.3,2.1,0.9c0.6,0.6,0.9,1.4,0.9,2.4C59.8,24.7,59.4,25.6,58.6,26.6z M19.9,35.6
	c1.4,0,2.6-1.2,2.6-2.6c0-1.4-1.2-2.6-2.6-2.6s-2.6,1.2-2.6,2.6c0,0.3,0.1,0.5,0.1,0.8l-3.7,2c-0.5-0.6-1.2-0.9-2-0.9
	c-1.4,0-2.6,1.2-2.6,2.6s1.2,2.6,2.6,2.6c0.8,0,1.5-0.4,2-0.9l3.7,2c-0.1,0.2-0.1,0.5-0.1,0.8c0,1.4,1.2,2.6,2.6,2.6
	s2.6-1.2,2.6-2.6s-1.2-2.6-2.6-2.6c-0.8,0-1.5,0.4-2,0.9l-3.7-2c0.1-0.2,0.1-0.5,0.1-0.8c0-0.3-0.1-0.5-0.1-0.8l3.7-2
	C18.4,35.2,19.1,35.6,19.9,35.6z M19.9,40.3c0.9,0,1.6,0.7,1.6,1.6s-0.7,1.6-1.6,1.6s-1.6-0.7-1.6-1.6S19,40.3,19.9,40.3z M11.8,39
	c-0.9,0-1.6-0.7-1.6-1.6s0.7-1.6,1.6-1.6s1.6,0.7,1.6,1.6S12.6,39,11.8,39z M19.9,31.4c0.9,0,1.6,0.7,1.6,1.6c0,0.9-0.7,1.6-1.6,1.6
	s-1.6-0.7-1.6-1.6C18.3,32.1,19,31.4,19.9,31.4z"/>
</svg>
