<?xml version="1.0" encoding="utf-8"?>
<!-- Generator: Adobe Illustrator 22.0.1, SVG Export Plug-In . SVG Version: 6.00 Build 0)  -->
<svg version="1.1" id="Слой_1" xmlns="http://www.w3.org/2000/svg" xmlns:xlink="http://www.w3.org/1999/xlink" x="0px" y="0px"
	 viewBox="0 0 68 68" style="enable-background:new 0 0 68 68;" xml:space="preserve">
<style type="text/css">
	.st0{fill:#7E8495;}
	.st1{fill:#E55030;}
</style>
<path class="st0" d="M34,42.1c-4.5,0-8.1-3.6-8.1-8.1c0-4.5,3.6-8.1,8.1-8.1c2.2,0,4.2,0.8,5.7,2.4l-1.4,1.4
	c-1.2-1.2-2.7-1.8-4.3-1.8c-3.4,0-6.1,2.7-6.1,6.1s2.7,6.1,6.1,6.1s6.1-2.7,6.1-6.1h2C42.1,38.5,38.5,42.1,34,42.1z M54.3,34
	c0-3.3-0.8-6.5-2.3-9.4l-0.9,0.5c1.4,2.7,2.2,5.8,2.2,8.9c0,10.6-8.7,19.3-19.3,19.3c-10.6,0-19.3-8.7-19.3-19.3
	c0-10.6,8.7-19.3,19.3-19.3c5.2,0,10,2,13.6,5.7l0.7-0.7c-3.8-3.8-8.9-5.9-14.4-5.9c-11.2,0-20.3,9.1-20.3,20.3S22.8,54.3,34,54.3
	S54.3,45.2,54.3,34z M68,34c0-7.6-2.4-14.8-7.1-20.7l-1.6,1.2C63.7,20.1,66,26.9,66,34c0,17.6-14.4,32-32,32C16.4,66,2,51.6,2,34
	C2,16.4,16.4,2,34,2c7.1,0,13.9,2.3,19.5,6.6L54.7,7c-6-4.6-13.1-7-20.7-7C15.3,0,0,15.3,0,34c0,18.7,15.3,34,34,34
	C52.7,68,68,52.7,68,34z"/>
<path class="st1" d="M67,7.8h-6.7l-0.1-0.1V1L48.9,12.3v6.1L33.6,33.6l0.7,0.7L49.7,19h6L67,7.8z M49.9,12.7l9.3-9.3v4.7l-9.3,9.3
	V12.7z M50.7,18l9.3-9.3h4.6L55.3,18H50.7z"/>
</svg>
