<?xml version="1.0" encoding="utf-8"?>
<!-- Generator: Adobe Illustrator 22.0.1, SVG Export Plug-In . SVG Version: 6.00 Build 0)  -->
<svg version="1.1" id="Слой_1" xmlns="http://www.w3.org/2000/svg" xmlns:xlink="http://www.w3.org/1999/xlink" x="0px" y="0px"
	 viewBox="0 0 66 70" style="enable-background:new 0 0 66 70;" xml:space="preserve">
<style type="text/css">
	.st0{fill:#E55030;}
	.st1{fill:#7E8495;}
</style>
<path class="st0" d="M45.5,63.9H6.1v-56h1v55h37.4v-9.2h1V63.9z M63.1,22.3l-5-2.9l-0.5,0.9l5,2.9L63.1,22.3z M45.5,7.9h-1v33h1V7.9
	z"/>
<path class="st1" d="M66,19.2l-7.2-4.2l-7.2,12.4V6.9H40.3V3.6h-4.6C33.8,1.9,31,0,25.8,0c-4,0-7.3,1.2-9.8,3.6h-4.6v3.3H0V70h51.6
	V44.1L66,19.2z M59.5,17.8l3.8,2.2L44.4,52.6l-3.8-2.2L59.5,17.8z M40.4,51.4l3.3,1.9l-3.9,3L40.4,51.4z M13.4,5.6h3.4l0.3-0.3
	C19.3,3.1,22.2,2,25.8,2c4.8,0,7.2,1.8,8.7,3.3l0.3,0.3h3.4v7.3H13.4V5.6z M49.6,68H2V8.9h9.4v6h28.9v-6h9.4v22l-11,19l-0.1,0.2
	l-1.3,10.6l8.5-6.5l3.9-6.7V68z"/>
</svg>
