<?xml version="1.0" encoding="utf-8"?>
<!-- Generator: Adobe Illustrator 22.0.1, SVG Export Plug-In . SVG Version: 6.00 Build 0)  -->
<svg version="1.1" id="Слой_1" xmlns="http://www.w3.org/2000/svg" xmlns:xlink="http://www.w3.org/1999/xlink" x="0px" y="0px"
	 viewBox="0 0 65 70" style="enable-background:new 0 0 65 70;" xml:space="preserve">
<style type="text/css">
	.st0{fill:#E55030;}
	.st1{fill:#7E8495;}
</style>
<path class="st0" d="M55.7,9h-8V1h1v7h7V9z M48.4,37.8H16.6v15.5h31.9V37.8z M17.6,38.8h29.9v13.5H17.6V38.8z M43.7,42.7H21.3v1
	h22.3V42.7z M37.9,47.5H21.3v1h16.6V47.5z"/>
<path class="st1" d="M59.3,30V15.1h-2.6V8.5l-8-8.5H15v9.6h-2.6v6.8H5.7V30H0v40h65V30H59.3z M17,2h30.8l6.9,7.3v5.8H33.2L30,9.6H17
	V2z M14.4,11.6h14.4l3.2,5.4h25.2V30h-4.7v-8.1H26.5l-3.2-5.4h-8.9V11.6z M7.7,18.4h14.4l3.2,5.4h25.2V30H7.7V18.4z M63,68H2V32h3.7
	h46.8H63V68z"/>
</svg>
