<?xml version="1.0" encoding="utf-8"?>
<!-- Generator: Adobe Illustrator 22.0.1, SVG Export Plug-In . SVG Version: 6.00 Build 0)  -->
<svg version="1.1" id="Слой_1" xmlns="http://www.w3.org/2000/svg" xmlns:xlink="http://www.w3.org/1999/xlink" x="0px" y="0px"
	 viewBox="0 0 70 70" style="enable-background:new 0 0 70 70;" xml:space="preserve">
<style type="text/css">
	.st0{fill:#7E8495;}
	.st1{fill:#E55030;}
</style>
<path class="st0" d="M56.9,6.1V0h-8.3v6.1h-9.4V0h-8.3v6.1h-9.4V0h-8.3v6.1H0V70h70V6.1H56.9z M50.6,2h4.3v10.3h-4.3V2z M32.8,2h4.3
	v10.3h-4.3V2z M15.1,2h4.3v10.3h-4.3V2z M13.1,8.1v6.2h8.3V8.1h9.4v6.2h8.3V8.1h9.4v6.2h8.3V8.1H68v10.8H2V8.1H13.1z M2,68V19.9h66
	V68H2z"/>
<path class="st1" d="M27.9,64.4l-1-0.4c-4.8-2-7.8-6.4-8.1-11.9C18.3,45.6,21.7,39,26.8,36l0.9-0.5l-0.2,1.1c-0.3,1.7-0.3,6,0.9,6.8
	c0.4,0.2,0.9,0.1,1.6-0.4c4-2.9,2.6-13.1,1.2-16.8L30.9,25l1.1,0.4c5.5,2.3,15.3,7.6,18.5,17.9c2.4,7.7-0.7,16.5-7.2,20.4l-0.9,0.6
	l0.2-1.1c0.5-3,0.1-6.9-2.9-8.9c-0.1,1.5-0.7,3.4-1.9,3.9c-0.6,0.3-1.5,0.3-2.6-0.9c-1.6-1.8-1-5.8,0.2-8.3
	c-6.7,2.9-9.6,8.2-7.8,14.3L27.9,64.4z M26.5,37.4c-4.4,3-7.1,8.9-6.7,14.7c0.3,4.8,2.7,8.6,6.6,10.6c-1.7-7.7,4-12.8,10-15l1.7-0.6
	l-1.2,1.4c-1.4,1.8-2.5,6.6-1,8.3c0.6,0.6,1,0.8,1.4,0.7c0.9-0.4,1.5-2.5,1.3-3.8l-0.1-0.9l0.8,0.4c3.7,1.8,4.6,5.9,4.3,9.3
	c5.5-4,8-11.8,5.8-18.7c-2.9-9.3-11.4-14.4-16.9-16.8c1.3,4.4,2.4,13.8-1.9,16.9c-1.1,0.8-2,0.9-2.8,0.5
	C26.3,43.1,26.3,39.4,26.5,37.4z"/>
</svg>
