<?xml version="1.0" encoding="utf-8"?>
<!-- Generator: Adobe Illustrator 22.0.1, SVG Export Plug-In . SVG Version: 6.00 Build 0)  -->
<svg version="1.1" id="Слой_1" xmlns="http://www.w3.org/2000/svg" xmlns:xlink="http://www.w3.org/1999/xlink" x="0px" y="0px"
	 viewBox="0 0 70 70" style="enable-background:new 0 0 70 70;" xml:space="preserve">
<style type="text/css">
	.st0{fill:#7E8495;}
	.st1{fill:#E55030;}
</style>
<path class="st0" d="M56.9,6.1V0h-8.3v6.1h-9.4V0h-8.3v6.1h-9.4V0h-8.3v6.1H0V70h70V6.1H56.9z M50.6,2h4.3v10.3h-4.3V2z M32.8,2h4.3
	v10.3h-4.3V2z M15.1,2h4.3v10.3h-4.3V2z M13.1,8.1v6.2h8.3V8.1h9.4v6.2h8.3V8.1h9.4v6.2h8.3V8.1H68v10.8H2V8.1H13.1z M2,68V19.9h66
	V68H2z"/>
<polygon class="st1" points="29.5,56.5 41.7,32.6 41.4,32.6 27.2,32.6 27.2,31.3 43.9,31.3 31.1,56.5 "/>
</svg>
