<?xml version="1.0" encoding="utf-8"?>
<!-- Generator: Adobe Illustrator 22.0.1, SVG Export Plug-In . SVG Version: 6.00 Build 0)  -->
<svg version="1.1" id="Слой_1" xmlns="http://www.w3.org/2000/svg" xmlns:xlink="http://www.w3.org/1999/xlink" x="0px" y="0px"
	 viewBox="0 0 70 70" style="enable-background:new 0 0 70 70;" xml:space="preserve">
<style type="text/css">
	.st0{fill:#7E8495;}
	.st1{fill:#E55030;}
</style>
<path class="st0" d="M56.9,6.1V0h-8.3v6.1h-9.4V0h-8.3v6.1h-9.4V0h-8.3v6.1H0V70h70V6.1H56.9z M50.6,2h4.3v10.3h-4.3V2z M32.8,2h4.3
	v10.3h-4.3V2z M15.1,2h4.3v10.3h-4.3V2z M13.1,8.1v6.2h8.3V8.1h9.4v6.2h8.3V8.1h9.4v6.2h8.3V8.1H68v10.8H2V8.1H13.1z M2,68V19.9h66
	V68H2z"/>
<path class="st1" d="M22.8,56.8c-2.2,0-4.2-0.5-5.7-1.6c-1.5-1-2.4-2.5-2.7-4.3l0.9-0.6c0.2,1.3,0.9,2.5,2.2,3.6
	c1.3,1.1,3.1,1.6,5.4,1.6c2,0,3.6-0.5,5-1.5c1.4-1,2.1-2.4,2.1-4c0-1.8-0.8-3.3-2.5-4.2c-1.6-1-3.7-1.4-6.2-1.4h-1.1v-1.2
	c1.7,0,3-0.1,4-0.2c1-0.2,2-0.5,2.8-1c1.4-0.8,2.1-2.1,2.1-3.8c0-1.8-0.7-3.2-2-4.2c-1.3-1-2.9-1.5-4.7-1.5c-1.7,0-3.1,0.4-4.3,1.1
	c-1.1,0.7-1.9,1.5-2.4,2.6l-1-0.9c0.7-1.3,1.7-2.3,3.1-3c1.4-0.7,3-1.1,4.7-1.1c2.4,0,4.4,0.7,5.9,2c1.5,1.3,2.3,2.9,2.3,4.9
	c0,2.9-1.6,4.7-4.9,5.5l-0.6,0.2l0.6,0.2c1.7,0.4,3.1,1.2,4.1,2.3c1,1.1,1.5,2.5,1.5,4.1c0,2-0.8,3.6-2.5,4.8
	C27.1,56.2,25.1,56.8,22.8,56.8z M50,55.6c1.3-0.8,2.4-1.8,3.2-3.1c0.8-1.2,1.5-2.6,1.9-4.1c0.4-1.5,0.7-2.9,0.7-4.4
	c0-1.4-0.2-2.9-0.7-4.4c-0.4-1.5-1.1-2.8-1.9-4.1c-0.8-1.3-1.9-2.3-3.2-3.1c-1.3-0.8-2.8-1.2-4.4-1.2c-2.1,0-3.9,0.7-5.5,2
	c-1.6,1.3-2.8,2.9-3.6,4.8c-0.8,1.9-1.2,3.9-1.2,6c0,1.9,0.4,3.9,1.2,5.8c0.8,1.9,1.9,3.5,3.4,4.9c1.5,1.3,3.3,2,5.6,2.1
	C47.2,56.8,48.7,56.4,50,55.6z M45.8,32.6c1.7,0,3.3,0.6,4.6,1.8c1.4,1.2,2.4,2.7,3,4.4c0.6,1.7,1,3.5,1,5.3c0,1.3-0.2,2.6-0.6,3.9
	c-0.4,1.3-0.9,2.5-1.6,3.7c-0.7,1.1-1.6,2.1-2.8,2.8c-1.2,0.7-2.4,1.1-3.8,1.1c-1.8,0-3.5-0.6-4.8-1.9c-1.4-1.2-2.3-2.7-2.9-4.4
	c-0.6-1.7-0.9-3.4-1-5.2c0-1.7,0.3-3.4,0.9-5.1c0.6-1.7,1.6-3.2,3-4.5c1.4-1.3,3-1.9,4.8-1.9L45.8,32.6z"/>
</svg>
