<?xml version="1.0" encoding="utf-8"?>
<!-- Generator: Adobe Illustrator 22.0.1, SVG Export Plug-In . SVG Version: 6.00 Build 0)  -->
<svg version="1.1" id="Group_596" xmlns="http://www.w3.org/2000/svg" xmlns:xlink="http://www.w3.org/1999/xlink" x="0px" y="0px"
	 viewBox="0 0 181 111" style="enable-background:new 0 0 181 111;" xml:space="preserve">
<style type="text/css">
	.st0{fill:#E55030;}
	.st1{fill:#121518;}
</style>
<path class="st0" d="M51.2,99c-1.2-0.1-2.5-0.4-3.6-0.9c-0.9-0.5-1.8-1.1-2.5-1.8c-0.7-0.7-1.4-1.6-1.8-2.6c-0.7-1.4-1-2.9-0.9-4.5
	c0.1-2.6,1.3-5,3.3-6.7v3.9l0.1,3.7c0.2,2.5,1.9,4.5,4.3,5.2c1.6,0.4,3.2,0.2,4.6-0.7c2.7-1.7,3.6-5.3,1.9-8c-0.2-0.4-0.5-0.7-0.8-1
	c-1.1-1.1-2.5-1.7-4-1.8v1.6c1.1,0,2.1,0.5,2.9,1.3c1.7,1.6,1.7,4.3,0.1,6c0,0-0.1,0.1-0.1,0.1c-1.3,1.2-3.2,1.5-4.8,0.7
	c-0.4-0.2-0.8-0.5-1.2-0.9c-0.7-0.8-1.2-1.8-1.2-2.9c0-2.8,0-5.6,0-8.3c0.3-0.1,0.4-0.2,0.7-0.2v7.9c-0.1,1.1,0.2,2.2,0.9,3
	c1.3,1.5,3.5,1.6,5,0.3c0.3-0.3,0.6-0.7,0.8-1.1c0.5-1,0.5-2.2,0-3.2c-0.1-0.2-0.2-0.4-0.3-0.6c-0.1-0.2-0.2-0.3-0.3-0.4
	c-0.6-0.6-1.5-0.9-2.4-1c0,1.6,0,1.6,0.3,1.6c0.2,0,0.5,0,1,0.5c0.8,0.8,0.8,2.1,0,2.9c-0.3,0.3-0.8,0.5-1.2,0.6h-0.5
	c-0.8-0.1-1.5-0.7-1.7-1.5c-0.1-0.4,0-8.6,0-9.5c0.6,0,1.3-0.2,2-0.2c1.9,0,3.8,0.6,5.3,1.7c0.3,0.2,0.7,0.5,1,0.8
	c0.5,0.5,1,1,1.4,1.6c1.8,2.6,2.2,6,0.8,9c-0.6,1.3-1.4,2.4-2.4,3.3c-0.2,0.2-0.4,0.3-0.6,0.5c-1.5,1.1-3.2,1.7-5,1.7L51.2,99z"/>
<path class="st1" d="M25.7,20.5L24,16.6c0-0.1-0.1-0.1-0.2-0.1h-1.2c-0.1,0-0.2,0.1-0.2,0.2c0,0,0,0.1,0,0.1l2.6,5.5
	c-0.2,0.6-0.9,1-1.5,1c-0.1,0-0.2,0.1-0.2,0.2c0,0,0,0,0,0v1.1c0,0.1,0.1,0.2,0.2,0.2c1.4,0,2.7-0.9,3.1-2.3l2.4-5.7
	c0-0.1,0-0.2-0.1-0.3c0,0-0.1,0-0.1,0h-1.2c-0.1,0-0.2,0.1-0.2,0.1L25.7,20.5z M34.2,20.1c-0.5,0.2-1,0.3-1.6,0.3
	c-0.7,0.1-1.2-0.4-1.3-1.1c0-0.1,0-0.1,0-0.2v-2.5c0-0.1-0.1-0.2-0.2-0.2c0,0,0,0,0,0h-1.2c-0.1,0-0.2,0.1-0.2,0.2v2.8
	c0,0.7,0.3,1.4,0.8,1.9c0.6,0.5,1.3,0.7,2.1,0.7c0.6,0,1.1-0.1,1.6-0.3v2.8c0,0.1,0.1,0.2,0.2,0.2h1.2c0.1,0,0.2-0.1,0.2-0.2v-7.9
	c0-0.1-0.1-0.2-0.2-0.2c0,0,0,0,0,0h-1.2c-0.1,0-0.2,0.1-0.2,0.2L34.2,20.1z M44.4,24.5l-2.8-7.9c0-0.1-0.1-0.1-0.2-0.1h-1.7
	c-0.1,0-0.2,0.1-0.2,0.1l-2.8,7.9c0,0.1,0,0.2,0.1,0.3c0,0,0,0,0.1,0h1.3c0.1,0,0.2-0.1,0.2-0.2l0.4-1.3h3.3l0.5,1.3
	c0,0.1,0.1,0.1,0.2,0.2h1.3C44.3,24.8,44.4,24.7,44.4,24.5C44.4,24.5,44.4,24.5,44.4,24.5z M40.5,18.3l1.1,3.4h-2.3L40.5,18.3z
	 M48.8,24.9c1.4,0,2.7-0.6,3.5-1.8c0.1-0.1,0-0.2-0.1-0.3c0,0,0,0,0,0l-1-0.6c-0.1,0-0.2,0-0.3,0.1c-0.5,0.7-1.2,1-2.1,1
	c-0.7,0-1.4-0.2-2-0.8c-0.5-0.5-0.8-1.2-0.7-2c0-0.7,0.2-1.4,0.7-2c0.5-0.5,1.2-0.8,2-0.8c0.8,0,1.6,0.3,2.1,1
	C51,19,51.1,19,51.2,19l1-0.6c0.1-0.1,0.1-0.2,0.1-0.3c0,0,0,0,0,0c-0.8-1.1-2.1-1.8-3.5-1.8c-1.2,0-2.3,0.4-3.1,1.2
	c-0.8,0.8-1.3,1.9-1.2,3.1c0,1.2,0.4,2.3,1.2,3.1C46.6,24.5,47.7,25,48.8,24.9L48.8,24.9z M52.8,16.7v1.1c0,0.1,0.1,0.2,0.2,0.2h2
	v6.5c0,0.1,0.1,0.2,0.2,0.2h1.2c0.1,0,0.2-0.1,0.2-0.2V18h2c0.1,0,0.2-0.1,0.2-0.2v-1.1c0-0.1-0.1-0.2-0.2-0.2c0,0,0,0,0,0H53
	C52.9,16.5,52.8,16.5,52.8,16.7C52.8,16.7,52.8,16.7,52.8,16.7L52.8,16.7z M64.5,19.8h-3.1v-3.1c0-0.1-0.1-0.2-0.2-0.2c0,0,0,0,0,0
	H60c-0.1,0-0.2,0.1-0.2,0.2c0,0,0,0,0,0v7.9c0,0.1,0.1,0.2,0.2,0.2h1.2c0.1,0,0.2-0.1,0.2-0.2v-3.2h3.1v3.2c0,0.1,0.1,0.2,0.2,0.2
	H66c0.1,0,0.2-0.1,0.2-0.2v-7.9c0-0.1-0.1-0.2-0.2-0.2c0,0,0,0,0,0h-1.2c-0.1,0-0.2,0.1-0.2,0.2c0,0,0,0,0,0V19.8z M74.2,24.6v-7.9
	c0-0.1-0.1-0.2-0.2-0.2c0,0,0,0,0,0H73c-0.1,0-0.1,0-0.2,0.1l-3.5,5v-4.9c0-0.1-0.1-0.2-0.2-0.2c0,0,0,0,0,0h-1.2
	c-0.1,0-0.2,0.1-0.2,0.2c0,0,0,0,0,0v7.9c0,0.1,0.1,0.2,0.2,0.2h0.9c0.1,0,0.1,0,0.2-0.1l3.5-5v4.9c0,0.1,0.1,0.2,0.2,0.2H74
	C74.1,24.8,74.2,24.7,74.2,24.6L74.2,24.6z M79,20.5l2.8-3.7c0.1-0.1,0.1-0.2,0-0.3c0,0-0.1-0.1-0.2-0.1h-1.4c-0.1,0-0.1,0-0.2,0.1
	l-2.8,3.6v-3.5c0-0.1-0.1-0.2-0.2-0.2c0,0,0,0,0,0h-1.2c-0.1,0-0.2,0.1-0.2,0.2c0,0,0,0,0,0v7.9c0,0.1,0.1,0.2,0.2,0.2h1.2
	c0.1,0,0.2-0.1,0.2-0.2v-3.7l2.9,3.8c0,0.1,0.1,0.1,0.2,0.1h1.4c0.1,0,0.2-0.1,0.2-0.2c0,0,0-0.1,0-0.1L79,20.5z M86,16.7v7.9
	c0,0.1,0.1,0.2,0.2,0.2h1.2c0.1,0,0.2-0.1,0.2-0.2V18h2.9v6.5c0,0.1,0.1,0.2,0.2,0.2H92c0.1,0,0.2-0.1,0.2-0.2v-7.9
	c0-0.1-0.1-0.2-0.2-0.2c0,0,0,0,0,0h-5.8C86.1,16.5,86,16.5,86,16.7C86,16.7,86,16.7,86,16.7L86,16.7z M93.8,16.7v7.9
	c0,0.1,0.1,0.2,0.2,0.2h1.2c0.1,0,0.2-0.1,0.2-0.2V22h1.5c0.8,0,1.5-0.3,2-0.8c0.5-0.5,0.8-1.2,0.8-2c0-0.7-0.3-1.5-0.8-2
	c-0.5-0.5-1.3-0.8-2-0.8H94C93.9,16.5,93.8,16.6,93.8,16.7L93.8,16.7z M95.4,20.5V18h1.5c0.7,0,1.2,0.5,1.2,1.2c0,0,0,0.1,0,0.1
	c0,0.7-0.5,1.2-1.2,1.3c0,0,0,0-0.1,0H95.4z M107.7,23.7c0.8-0.8,1.3-1.9,1.3-3.1c0-1.2-0.4-2.3-1.3-3.1c-0.8-0.8-1.9-1.3-3.1-1.3
	c-1.2,0-2.3,0.4-3.1,1.3c-0.8,0.8-1.3,1.9-1.2,3.1c0,1.2,0.4,2.3,1.2,3.1c0.8,0.8,1.9,1.3,3.1,1.2C105.8,25,106.9,24.5,107.7,23.7z
	 M102.7,22.6c-0.5-0.5-0.8-1.2-0.8-2c0-0.7,0.3-1.4,0.8-2c0.5-0.5,1.2-0.8,1.9-0.8c0.7,0,1.4,0.3,1.9,0.8c0.5,0.5,0.8,1.2,0.8,2
	c0,0.7-0.3,1.4-0.8,2c-0.5,0.5-1.2,0.8-1.9,0.8C103.9,23.4,103.2,23.1,102.7,22.6z M110.1,16.7v7.9c0,0.1,0.1,0.2,0.2,0.2h1.2
	c0.1,0,0.2-0.1,0.2-0.2V18h2.9c0.1,0,0.2-0.1,0.2-0.2v-1.1c0-0.1-0.1-0.2-0.2-0.2c0,0,0,0,0,0h-4.3
	C110.2,16.5,110.1,16.6,110.1,16.7L110.1,16.7z M115.8,16.7v7.9c0,0.1,0.1,0.2,0.2,0.2h1.2c0.1,0,0.2-0.1,0.2-0.2V22h1.5
	c0.8,0,1.5-0.3,2-0.8c0.5-0.5,0.8-1.2,0.8-2c0-0.7-0.3-1.5-0.8-2c-0.5-0.5-1.3-0.8-2-0.8H116C115.9,16.5,115.8,16.6,115.8,16.7
	L115.8,16.7z M117.4,20.5V18h1.5c0.7,0,1.2,0.5,1.2,1.2c0,0,0,0,0,0.1c0,0.7-0.5,1.2-1.2,1.3c0,0,0,0-0.1,0H117.4z M128.9,24.5
	l-2.8-7.9c0-0.1-0.1-0.1-0.2-0.1h-1.7c-0.1,0-0.2,0.1-0.2,0.1l-2.8,7.9c0,0.1,0,0.2,0.1,0.3c0,0,0,0,0.1,0h1.3
	c0.1,0,0.2-0.1,0.2-0.2l0.4-1.3h3.3l0.5,1.3c0,0.1,0.1,0.1,0.2,0.2h1.3C128.8,24.8,128.9,24.7,128.9,24.5
	C128.9,24.5,128.9,24.5,128.9,24.5z M125.1,18.3l1.1,3.4h-2.3L125.1,18.3z M136.1,16.6l-2.3,3.8l-2.3-3.8c0-0.1-0.1-0.1-0.2-0.1
	h-1.4c-0.1,0-0.2,0.1-0.2,0.2c0,0,0,0,0,0v7.9c0,0.1,0.1,0.2,0.2,0.2h1.2c0.1,0,0.2-0.1,0.2-0.2v-5.2l2.3,3.7c0,0.1,0.2,0.1,0.3,0.1
	c0,0,0.1-0.1,0.1-0.1l2.3-3.7v5.2c0,0.1,0.1,0.2,0.2,0.2h1.2c0.1,0,0.2-0.1,0.2-0.2v-7.9c0-0.1-0.1-0.2-0.2-0.2c0,0,0,0,0,0h-1.4
	C136.2,16.5,136.2,16.5,136.1,16.6z M145.8,16.6l-2.3,3.8l-2.3-3.8c0-0.1-0.1-0.1-0.2-0.1h-1.4c-0.1,0-0.2,0.1-0.2,0.2c0,0,0,0,0,0
	v7.9c0,0.1,0.1,0.2,0.2,0.2h1.2c0.1,0,0.2-0.1,0.2-0.2v-5.2l2.3,3.7c0,0.1,0.2,0.1,0.3,0.1c0,0,0.1-0.1,0.1-0.1l2.3-3.7v5.2
	c0,0.1,0.1,0.2,0.2,0.2h1.2c0.1,0,0.2-0.1,0.2-0.2v-7.9c0-0.1-0.1-0.2-0.2-0.2c0,0,0,0,0,0H146C145.9,16.5,145.8,16.5,145.8,16.6
	L145.8,16.6z M150.7,20.7h1.5c0.7,0,1.2,0.5,1.2,1.2c0,0,0,0,0,0.1c0,0.7-0.5,1.2-1.1,1.3c0,0,0,0-0.1,0h-1.5L150.7,20.7z
	 M150.7,19.2v-2.5c0-0.1-0.1-0.2-0.2-0.2c0,0,0,0,0,0h-1.2c-0.1,0-0.2,0.1-0.2,0.2v7.9c0,0.1,0.1,0.2,0.2,0.2h2.9
	c0.8,0,1.5-0.3,2-0.8c0.5-0.5,0.8-1.2,0.8-2c0-0.7-0.3-1.5-0.8-2c-0.5-0.5-1.3-0.8-2-0.8L150.7,19.2z M156,24.8h1.2
	c0.1,0,0.2-0.1,0.2-0.2v-7.9c0-0.1-0.1-0.2-0.2-0.2c0,0,0,0,0,0H156c-0.1,0-0.2,0.1-0.2,0.2v7.9C155.8,24.7,155.9,24.8,156,24.8z
	 M63.6,35.4l2.8-3.7c0.1-0.1,0.1-0.2,0-0.3c0,0-0.1,0-0.1,0h-1.4c-0.1,0-0.1,0-0.2,0.1L61.9,35v-3.5c0-0.1-0.1-0.2-0.2-0.2
	c0,0,0,0,0,0h-1.2c-0.1,0-0.2,0.1-0.2,0.2c0,0,0,0,0,0v7.9c0,0.1,0.1,0.2,0.2,0.2h1.2c0.1,0,0.2-0.1,0.2-0.2v-3.7l2.9,3.8
	c0,0.1,0.1,0.1,0.2,0.1h1.4c0.1,0,0.2-0.1,0.2-0.2c0,0,0-0.1,0-0.1L63.6,35.4z M74.8,39.3L72,31.5c0-0.1-0.1-0.1-0.2-0.1H70
	c-0.1,0-0.2,0.1-0.2,0.1l-2.8,7.9c0,0.1,0,0.2,0.1,0.3c0,0,0,0,0.1,0h1.3c0.1,0,0.2-0.1,0.2-0.2l0.4-1.3h3.3l0.5,1.3
	c0,0.1,0.1,0.1,0.2,0.2h1.3C74.7,39.6,74.8,39.5,74.8,39.3C74.8,39.4,74.8,39.4,74.8,39.3z M70.9,33.2l1.1,3.4h-2.3L70.9,33.2z
	 M79.3,35c-0.5,0.2-1,0.3-1.6,0.3c-0.7,0.1-1.2-0.4-1.3-1.1c0-0.1,0-0.1,0-0.2v-2.5c0-0.1-0.1-0.2-0.2-0.2c0,0,0,0,0,0H75
	c-0.1,0-0.2,0.1-0.2,0.2v2.8c0,0.7,0.3,1.4,0.8,1.9c0.6,0.5,1.3,0.7,2.1,0.7c0.6,0,1.1-0.1,1.6-0.3v2.8c0,0.1,0.1,0.2,0.2,0.2h1.2
	c0.1,0,0.2-0.1,0.2-0.2v-7.9c0-0.1-0.1-0.2-0.2-0.2c0,0,0,0,0,0h-1.2c-0.1,0-0.2,0.1-0.2,0.2L79.3,35z M84.1,36.2h2.9
	c0.1,0,0.2-0.1,0.2-0.2v-1.1c0-0.1-0.1-0.2-0.2-0.2c0,0,0,0,0,0h-2.9v-1.8h3.2c0.1,0,0.2-0.1,0.2-0.2v-1.1c0-0.1-0.1-0.2-0.2-0.2
	c0,0,0,0,0,0h-4.7c-0.1,0-0.2,0.1-0.2,0.2c0,0,0,0,0,0v7.9c0,0.1,0.1,0.2,0.2,0.2h4.7c0.1,0,0.2-0.1,0.2-0.2v-1.1
	c0-0.1-0.1-0.2-0.2-0.2c0,0,0,0,0,0h-3.3V36.2z M92.7,39.8c1.4,0,2.7-0.6,3.5-1.8c0.1-0.1,0-0.2-0.1-0.3c0,0,0,0,0,0l-1-0.6
	c-0.1,0-0.2,0-0.3,0.1c-0.5,0.7-1.2,1-2.1,1c-0.7,0-1.4-0.2-2-0.8c-0.5-0.5-0.8-1.2-0.7-2c0-0.7,0.2-1.4,0.7-2
	c0.5-0.5,1.2-0.8,2-0.8c0.8,0,1.6,0.3,2.1,1c0.1,0.1,0.2,0.1,0.3,0.1l1-0.6c0.1-0.1,0.1-0.2,0.1-0.3c0,0,0,0,0,0
	c-0.8-1.1-2.1-1.8-3.5-1.8c-2.3-0.1-4.3,1.8-4.3,4.1c0,0.1,0,0.1,0,0.2c-0.1,2.3,1.8,4.3,4.1,4.3C92.5,39.8,92.6,39.8,92.7,39.8
	L92.7,39.8z M96.6,31.5v1.1c0,0.1,0.1,0.2,0.2,0.2h2v6.5c0,0.1,0.1,0.2,0.2,0.2h1.2c0.1,0,0.2-0.1,0.2-0.2v-6.5h2
	c0.1,0,0.2-0.1,0.2-0.2v-1.1c0-0.1-0.1-0.2-0.2-0.2c0,0,0,0,0,0h-5.7C96.7,31.3,96.6,31.4,96.6,31.5C96.6,31.5,96.6,31.5,96.6,31.5z
	 M108.7,35.3c0.5-0.4,0.8-1,0.8-1.7c0-0.6-0.3-1.3-0.7-1.7c-0.5-0.4-1.1-0.7-1.8-0.7h-3.1c-0.1,0-0.2,0.1-0.2,0.2c0,0,0,0,0,0v7.9
	c0,0.1,0.1,0.2,0.2,0.2h3.3c0.7,0,1.3-0.2,1.8-0.7c0.5-0.4,0.8-1.1,0.7-1.7C109.8,36.4,109.4,35.7,108.7,35.3z M106.9,32.8
	c0.5,0,0.9,0.4,0.9,0.9c0,0.5-0.4,0.9-0.9,0.9h-1.6v-1.8L106.9,32.8z M105.3,38.1v-2h1.9c0.5,0,1,0.4,1,1c0,0.5-0.4,1-1,1H105.3z
	 M117.8,39.3l-2.8-7.9c0-0.1-0.1-0.1-0.2-0.1h-1.7c-0.1,0-0.2,0.1-0.2,0.1l-2.8,7.9c0,0.1,0,0.2,0.1,0.3c0,0,0,0,0.1,0h1.3
	c0.1,0,0.2-0.1,0.2-0.2l0.4-1.3h3.3l0.5,1.3c0,0.1,0.1,0.1,0.2,0.2h1.3C117.7,39.6,117.8,39.5,117.8,39.3
	C117.8,39.4,117.8,39.4,117.8,39.3z M114,33.2l1.1,3.4h-2.3L114,33.2z M62.5,50.2c0.5-0.4,0.8-1,0.8-1.7c0-0.6-0.3-1.3-0.7-1.7
	c-0.5-0.4-1.1-0.7-1.8-0.7h-3.1c-0.1,0-0.2,0.1-0.2,0.2c0,0,0,0,0,0v7.9c0,0.1,0.1,0.2,0.2,0.2H61c0.7,0,1.3-0.2,1.8-0.7
	c0.5-0.4,0.8-1.1,0.7-1.7C63.6,51.3,63.2,50.6,62.5,50.2z M60.7,47.7c0.5,0,0.9,0.4,0.9,0.9c0,0,0,0,0,0.1c0,0.5-0.4,0.9-0.8,0.9
	c0,0,0,0,0,0h-1.6v-1.8L60.7,47.7z M59.1,53v-2H61c0.5,0,1,0.4,1,0.9c0,0,0,0,0,0.1c0,0.5-0.4,1-0.9,1c0,0,0,0-0.1,0L59.1,53z
	 M69.4,49.5h-3.1v-3.1c0-0.1-0.1-0.2-0.2-0.2c0,0,0,0,0,0h-1.2c-0.1,0-0.2,0.1-0.2,0.2c0,0,0,0,0,0v7.9c0,0.1,0.1,0.2,0.2,0.2H66
	c0.1,0,0.2-0.1,0.2-0.2V51h3.1v3.2c0,0.1,0.1,0.2,0.2,0.2h1.2c0.1,0,0.2-0.1,0.2-0.2v-7.9c0-0.1-0.1-0.2-0.2-0.2c0,0,0,0,0,0h-1.2
	c-0.1,0-0.2,0.1-0.2,0.2c0,0,0,0,0,0V49.5z M74.2,51.1h2.9c0.1,0,0.2-0.1,0.2-0.2v-1.1c0-0.1-0.1-0.2-0.2-0.2c0,0,0,0,0,0h-2.9v-1.8
	h3.2c0.1,0,0.2-0.1,0.2-0.2v-1.1c0-0.1-0.1-0.2-0.2-0.2c0,0,0,0,0,0h-4.7c-0.1,0-0.2,0.1-0.2,0.2c0,0,0,0,0,0v7.9
	c0,0.1,0.1,0.2,0.2,0.2h4.7c0.1,0,0.2-0.1,0.2-0.2v-1.1c0-0.1-0.1-0.2-0.2-0.2c0,0,0,0,0,0h-3.3V51.1z M85,46.2h-5.1
	c-0.1,0-0.2,0.1-0.2,0.2c0,0,0,0,0,0v3.7c0.1,1-0.2,2-0.7,2.8h-0.6c-0.1,0-0.2,0.1-0.2,0.2c0,0,0,0,0,0v2.7c0,0.1,0.1,0.2,0.2,0.2
	h1.2c0.1,0,0.2-0.1,0.2-0.2v-1.4h4.6v1.4c0,0.1,0.1,0.2,0.2,0.2h1.2c0.1,0,0.2-0.1,0.2-0.2v-2.7c0-0.1-0.1-0.2-0.2-0.2c0,0,0,0,0,0
	h-0.7v-6.5C85.2,46.3,85.1,46.2,85,46.2C85,46.2,85,46.2,85,46.2z M80.8,52.9c0.4-0.9,0.6-1.8,0.6-2.8v-2.4h2.2v5.2H80.8z
	 M87.2,46.4v7.9c0,0.1,0.1,0.2,0.2,0.2h1.2c0.1,0,0.2-0.1,0.2-0.2v-2.5h1.5c0.8,0,1.5-0.3,2-0.8c1.1-1.1,1.1-2.9,0-4
	c-0.5-0.5-1.3-0.8-2-0.8h-2.9C87.3,46.2,87.2,46.3,87.2,46.4L87.2,46.4z M88.8,50.2v-2.5h1.5c0.7,0,1.2,0.5,1.2,1.2c0,0,0,0,0,0.1
	c0,0.7-0.5,1.2-1.2,1.3c0,0,0,0-0.1,0H88.8z M95.9,51.1h2.9c0.1,0,0.2-0.1,0.2-0.2v-1.1c0-0.1-0.1-0.2-0.2-0.2c0,0,0,0,0,0h-2.9
	v-1.8h3.2c0.1,0,0.2-0.1,0.2-0.2v-1.1c0-0.1-0.1-0.2-0.2-0.2c0,0,0,0,0,0h-4.7c-0.1,0-0.2,0.1-0.2,0.2c0,0,0,0,0,0v7.9
	c0,0.1,0.1,0.2,0.2,0.2h4.7c0.1,0,0.2-0.1,0.2-0.2v-1.1c0-0.1-0.1-0.2-0.2-0.2c0,0,0,0,0,0h-3.3L95.9,51.1z M105.3,49.5h-3.1v-3.1
	c0-0.1-0.1-0.2-0.2-0.2c0,0,0,0,0,0h-1.2c-0.1,0-0.2,0.1-0.2,0.2c0,0,0,0,0,0v7.9c0,0.1,0.1,0.2,0.2,0.2h1.2c0.1,0,0.2-0.1,0.2-0.2
	V51h3.1v3.2c0,0.1,0.1,0.2,0.2,0.2h1.2c0.1,0,0.2-0.1,0.2-0.2v-7.9c0-0.1-0.1-0.2-0.2-0.2c0,0,0,0,0,0h-1.2c-0.1,0-0.2,0.1-0.2,0.2
	c0,0,0,0,0,0L105.3,49.5z M114.9,54.3v-7.9c0-0.1-0.1-0.2-0.2-0.2c0,0,0,0,0,0h-0.9c-0.1,0-0.1,0-0.2,0.1l-3.5,5v-4.9
	c0-0.1-0.1-0.2-0.2-0.2c0,0,0,0,0,0h-1.2c-0.1,0-0.2,0.1-0.2,0.2c0,0,0,0,0,0v7.9c0,0.1,0.1,0.2,0.2,0.2h0.9c0.1,0,0.1,0,0.2-0.1
	l3.5-5v4.9c0,0.1,0.1,0.2,0.2,0.2h1.2C114.8,54.5,114.9,54.4,114.9,54.3L114.9,54.3z M122.9,54.3v-7.9c0-0.1-0.1-0.2-0.2-0.2
	c0,0,0,0,0,0h-0.9c-0.1,0-0.1,0-0.2,0.1l-3.5,5v-4.9c0-0.1-0.1-0.2-0.2-0.2c0,0,0,0,0,0h-1.2c-0.1,0-0.2,0.1-0.2,0.2c0,0,0,0,0,0
	v7.9c0,0.1,0.1,0.2,0.2,0.2h0.9c0.1,0,0.1,0,0.2-0.1l3.5-5v4.9c0,0.1,0.1,0.2,0.2,0.2h1.2C122.8,54.5,122.9,54.4,122.9,54.3
	L122.9,54.3z M121.4,45.2v-0.9c0-0.1-0.1-0.2-0.2-0.2c0,0,0,0,0,0h-3c-0.1,0-0.2,0.1-0.2,0.2c0,0,0,0,0,0v0.9c0,0.1,0.1,0.2,0.2,0.2
	h3C121.3,45.4,121.4,45.3,121.4,45.2L121.4,45.2z"/>
<path class="st1" d="M0,0v111h181V0H0z M179,2v67.3H2V2H179z M2,109V71.3h177V109H2z M81.2,90.8c-0.1,0.6-0.5,1.2-1.2,1.2
	c-0.1,0-0.1,0-0.2,0c-0.8,0-1.4-0.7-1.4-1.4c0-0.3,0.1-0.6,0.3-0.8l0,0c0.2-0.3,0.6-0.5,0.9-0.5c0.1,0-0.2-0.1,0.3,0
	C80.7,89.3,81.3,90,81.2,90.8z M87.3,89.7h-1.7v-1.3h3.8v-2.1h-6c-0.2,0-0.2,0.1-0.2,0.2v8c0,0.2,0.1,0.2,0.2,0.2h0
	c0.6,0,1.4,0,2.2,0c1.2,0.1,2.4-0.1,3.5-0.6c0.7-0.5,1.1-1.4,1-2.3C89.9,90.6,88.7,89.5,87.3,89.7z M86.5,93.1h-0.9v-1.7
	c0.3,0,0.5,0,0.7,0c0.9,0,1.3,0.1,1.3,1C87.6,93,87.1,93.1,86.5,93.1z M65,86.3h3.5v8.5l-2.2,0v-6.5H65V86.3z M74.2,86.1
	c0.9,0,1.7,0.2,2.4,0.7v2.5C76.1,89,75.5,88,74,88.4c-2,0.5-2.1,4,0,4.5c1,0.2,1.9-0.1,2.6-0.8v2.5c-0.3,0.2-0.7,0.4-1,0.5
	c-0.4,0.1-0.8,0.2-1.2,0.2c-1.4,0-2.8-0.7-3.6-1.8v0c-0.5-0.8-0.8-1.8-0.7-2.8C69.9,88.1,71.8,86.1,74.2,86.1z M110.3,86.3H107v8.5
	h2.4v-2.8c1.3,0,2.3,0.1,3.3-0.7c0,0,0.1-0.1,0.1-0.1c1.1-1.2,1.1-3.1-0.1-4.2C112,86.5,111.2,86.3,110.3,86.3z M111.1,89.3
	c-0.1,0.5-0.6,0.9-1.1,0.8h-0.7v-1.9l0.2,0c0.4,0,0.8,0,1.2,0.2C111,88.6,111.2,89,111.1,89.3z M129.9,92.7c0.6,0.7,1.1,1.4,1.6,2.2
	h-2.3c-0.2,0-0.3,0-0.4,0c-0.2,0-0.3-0.1-0.5-0.3l0,0c-0.6-0.8-1.7-2.6-2.2-3.3v3.6H124c-0.2,0-0.2-0.1-0.2-0.2v-8.3h2.4v3.5
	l1.9-2.6c0.7-1,0.6-0.9,1.3-0.9c0.7,0,1.4,0,2.2,0l-0.8,1c-0.3,0.4-0.5,0.7-0.8,1l-1.6,2.1c0.2,0.4,0.6,0.7,0.8,1.1
	C129.4,91.9,129.6,92.3,129.9,92.7z M137.2,92.4c0.2-0.1,0.3-0.3,0.5-0.4v2.5c-0.7,0.4-1.4,0.6-2.2,0.6c-0.4,0-0.7,0-1.1-0.1l0,0
	c-0.3-0.1-0.6-0.2-0.8-0.3c-1.6-0.8-2.6-2.4-2.5-4.1c-0.1-1.7,0.9-3.3,2.5-4.1c1.3-0.5,2.8-0.4,4.1,0.3v2.5
	c-0.2-0.1-0.1-0.1-0.2-0.2c-2.4-2.4-5.1,0.8-3.5,3c0.3,0.4,0.6,0.6,1.1,0.7C135.9,93,136.6,92.8,137.2,92.4z M122.4,86.3v8.5
	c-2.7,0-2.3,0.2-2.3-1.1v-3.8l-0.8,1.2c-0.3,0.4-0.5,0.7-0.8,1.2c-0.2,0.4-1.5,2.2-1.6,2.5h-1.4c-0.2,0-0.4,0-0.6,0
	c-0.3,0-0.5,0-0.5-0.3l0,0v-8c0-0.2,0.1-0.2,0.2-0.2h2.1v4.9c0.3-0.2,2.1-3.2,2.5-3.8C120.3,86,119.6,86.3,122.4,86.3z M99,86.3v8.5
	c-0.7,0-1.2,0-1.6,0c-0.9,0-0.7-0.1-0.7-1.1v0v-3.8l-2.4,3.8c-0.2,0.2-0.3,0.4-0.4,0.6c-0.2,0.4-0.2,0.6-0.5,0.6h-2
	c-0.2,0-0.2-0.1-0.2-0.2v-8c0-0.2,0.1-0.2,0.2-0.2c2.5,0,2.2-0.2,2.1,1v3.8c0.2-0.1,2.2-3.3,2.5-3.7C96.9,86,96.5,86.3,99,86.3z
	 M106.1,88.4h-1.9v6.4h-2.4v-6.4H100v-2.1h5.9C106.3,86.3,106.1,87.2,106.1,88.4z"/>
</svg>
