<?xml version="1.0" encoding="utf-8"?>
<!-- Generator: Adobe Illustrator 22.0.1, SVG Export Plug-In . SVG Version: 6.00 Build 0)  -->
<svg version="1.1" id="Group_596" xmlns="http://www.w3.org/2000/svg" xmlns:xlink="http://www.w3.org/1999/xlink" x="0px" y="0px"
	 viewBox="0 0 181 111" style="enable-background:new 0 0 181 111;" xml:space="preserve">
<style type="text/css">
	.st0{fill:#E55030;}
	.st1{fill:#121518;}
</style>
<path class="st0" d="M51.2,99c-1.2-0.1-2.5-0.4-3.6-0.9c-0.9-0.5-1.8-1.1-2.5-1.8c-0.7-0.7-1.4-1.6-1.8-2.6c-0.7-1.4-1-2.9-0.9-4.5
	c0.1-2.6,1.3-5,3.3-6.7v3.9l0.1,3.7c0.2,2.5,1.9,4.5,4.3,5.2c1.6,0.4,3.2,0.2,4.6-0.7c2.7-1.7,3.6-5.3,1.9-8c-0.2-0.4-0.5-0.7-0.8-1
	c-1.1-1.1-2.5-1.7-4-1.8v1.6c1.1,0,2.1,0.5,2.9,1.3c1.7,1.6,1.7,4.3,0.1,6c0,0-0.1,0.1-0.1,0.1c-1.3,1.2-3.2,1.5-4.8,0.7
	c-0.4-0.2-0.8-0.5-1.2-0.9c-0.7-0.8-1.2-1.8-1.2-2.9c0-2.8,0-5.6,0-8.3c0.3-0.1,0.4-0.2,0.7-0.2v7.9c-0.1,1.1,0.2,2.2,0.9,3
	c1.3,1.5,3.5,1.6,5,0.3c0.3-0.3,0.6-0.7,0.8-1.1c0.5-1,0.5-2.2,0-3.2c-0.1-0.2-0.2-0.4-0.3-0.6c-0.1-0.2-0.2-0.3-0.3-0.4
	c-0.6-0.6-1.5-0.9-2.4-1c0,1.6,0,1.6,0.3,1.6c0.2,0,0.5,0,1,0.5c0.8,0.8,0.8,2.1,0,2.9c-0.3,0.3-0.8,0.5-1.2,0.6h-0.5
	c-0.8-0.1-1.5-0.7-1.7-1.5c-0.1-0.4,0-8.6,0-9.5c0.6,0,1.3-0.2,2-0.2c1.9,0,3.8,0.6,5.3,1.7c0.3,0.2,0.7,0.5,1,0.8
	c0.5,0.5,1,1,1.4,1.6c1.8,2.6,2.2,6,0.8,9c-0.6,1.3-1.4,2.4-2.4,3.3c-0.2,0.2-0.4,0.3-0.6,0.5c-1.5,1.1-3.2,1.7-5,1.7L51.2,99z"/>
<path class="st1" d="M70.7,93.2c-0.5-0.8-0.8-1.8-0.7-2.8c0-2.3,1.9-4.3,4.2-4.3c0.9,0,1.7,0.2,2.4,0.7v2.5C76.1,89,75.5,88,74,88.4
	c-2,0.5-2.1,4,0,4.5c1,0.2,1.9-0.1,2.6-0.8v2.5c-0.3,0.2-0.7,0.4-1,0.5c-0.4,0.1-0.8,0.2-1.2,0.2C72.9,95.1,71.5,94.4,70.7,93.2
	L70.7,93.2z M134.4,95c-0.3-0.1-0.6-0.2-0.8-0.3c-1.6-0.8-2.6-2.4-2.5-4.1c-0.1-1.7,0.9-3.3,2.5-4.1c1.3-0.5,2.8-0.4,4.1,0.3v2.5
	c-0.2-0.1-0.1-0.1-0.2-0.2c-2.4-2.4-5.1,0.8-3.5,3c0.3,0.4,0.6,0.6,1.1,0.7c0.7,0.2,1.5,0,2.1-0.4c0.2-0.1,0.3-0.3,0.5-0.4v2.5
	c-0.7,0.4-1.4,0.6-2.2,0.6C135.1,95.1,134.8,95,134.4,95L134.4,95z M83.3,94.8c-0.2,0-0.2-0.1-0.2-0.2v-8c0-0.2,0.1-0.2,0.2-0.2h6
	v2.1h-3.8v1.3h1.7c1.4-0.1,2.6,0.9,2.8,2.3c0.1,0.9-0.3,1.8-1,2.3c-1.1,0.5-2.3,0.7-3.5,0.6C84.7,94.9,83.9,94.8,83.3,94.8
	L83.3,94.8z M85.5,91.4v1.7h0.9c0.6,0,1.1-0.1,1.1-0.7c0-0.9-0.4-1-1.3-1C86,91.3,85.8,91.4,85.5,91.4z M114.5,94.6v-8
	c0-0.2,0.1-0.2,0.2-0.2h2.1v4.9c0.3-0.2,2.1-3.2,2.5-3.8c1-1.5,0.2-1.2,3-1.2v8.5c-2.7,0-2.3,0.2-2.3-1.1v-3.8l-0.8,1.2
	c-0.3,0.4-0.5,0.7-0.8,1.2c-0.2,0.4-1.5,2.2-1.6,2.5h-1.4c-0.2,0-0.4,0-0.6,0C114.7,94.9,114.5,94.8,114.5,94.6L114.5,94.6z
	 M96.7,93.7v-3.8l-2.4,3.8c-0.2,0.2-0.3,0.4-0.4,0.6c-0.2,0.4-0.2,0.6-0.5,0.6h-2c-0.2,0-0.2-0.1-0.2-0.2v-8c0-0.2,0.1-0.2,0.2-0.2
	c2.5,0,2.2-0.2,2.1,1v3.8c0.2-0.1,2.2-3.3,2.5-3.7c0.9-1.5,0.5-1.1,3-1.1v8.5c-0.7,0-1.2,0-1.6,0C96.5,94.9,96.7,94.7,96.7,93.7
	L96.7,93.7z M128.4,94.6c-0.6-0.8-1.7-2.6-2.2-3.3v3.6H124c-0.2,0-0.2-0.1-0.2-0.2v-8.3h2.4v3.5l1.9-2.6c0.7-1,0.6-0.9,1.3-0.9
	c0.7,0,1.4,0,2.2,0l-0.8,1c-0.3,0.4-0.5,0.7-0.8,1l-1.6,2.1c0.2,0.4,0.6,0.7,0.8,1.1c0.3,0.4,0.5,0.7,0.8,1.1
	c0.6,0.7,1.1,1.4,1.6,2.2h-2.3c-0.2,0-0.3,0-0.4,0C128.6,94.9,128.5,94.8,128.4,94.6L128.4,94.6z M107,94.8v-8.5h3.3
	c0.9-0.1,1.7,0.2,2.4,0.7c1.2,1.1,1.2,3,0.1,4.2c0,0-0.1,0.1-0.1,0.1c-1,0.8-2,0.7-3.3,0.7v2.8H107z M109.4,88.2v1.9h0.7
	c0.5,0.1,1-0.3,1.1-0.8c0.1-0.4-0.1-0.7-0.4-0.9c-0.4-0.2-0.8-0.2-1.2-0.2L109.4,88.2z M101.8,94.8v-6.4H100v-2.1h5.9
	c0.4,0,0.2,0.9,0.2,2.1h-1.9v6.4H101.8z M66.3,94.8v-6.5H65v-2h3.5v8.5L66.3,94.8z M78.7,89.8c0.2-0.3,0.6-0.5,0.9-0.5
	c0.1,0-0.2-0.1,0.3,0c0.8,0.1,1.3,0.8,1.3,1.5c-0.1,0.6-0.5,1.2-1.2,1.2c-0.1,0-0.1,0-0.2,0c-0.8,0-1.4-0.7-1.4-1.4
	C78.4,90.3,78.5,90,78.7,89.8L78.7,89.8z"/>
<path class="st1" d="M0,0v111h181V0H0z M179,2v67.3H2V2H179z M2,109V71.3h177V109H2z M69.8,20.7c0.6-0.4,0.9-1.1,0.9-1.7
	c0-0.7-0.3-1.3-0.8-1.8c-0.6-0.5-1.3-0.7-2-0.7c-1.2-0.1-2.2,0.5-2.8,1.6c-0.1,0.1,0,0.2,0.1,0.3c0,0,0,0,0,0l1,0.6
	c0.1,0.1,0.2,0,0.3-0.1c0,0,0,0,0,0c0.3-0.5,0.8-0.9,1.4-0.8c0.8,0,1.2,0.4,1.2,1c0,0.6-0.5,1-1.3,1h-0.6c-0.1,0-0.2,0.1-0.2,0.2
	c0,0,0,0,0,0v1c0,0.1,0.1,0.2,0.2,0.2H68c0.9,0,1.3,0.4,1.3,1.1c0,0.6-0.5,1.1-1.4,1.1c-0.7,0.1-1.3-0.3-1.6-1
	c-0.1-0.1-0.2-0.2-0.3-0.1c0,0,0,0,0,0l-1,0.6c-0.1,0.1-0.1,0.2-0.1,0.3c0.5,1.2,1.7,1.9,3,1.8c0.8,0,1.5-0.2,2.2-0.7
	c0.5-0.4,0.9-1.1,0.8-1.8C71,21.8,70.5,21,69.8,20.7z M78.7,23.9c0.8-0.8,1.3-1.9,1.3-3.1c0-1.1-0.4-2.3-1.3-3
	c-0.8-0.8-1.9-1.3-3-1.3c-1.1,0-2.2,0.4-3,1.3c-0.8,0.8-1.3,1.9-1.2,3c0,1.1,0.4,2.3,1.2,3.1c0.8,0.8,1.9,1.3,3,1.2
	C76.8,25.1,77.9,24.7,78.7,23.9z M73.8,22.8c-0.5-0.5-0.8-1.2-0.8-1.9c0-0.7,0.3-1.4,0.8-1.9c0.5-0.5,1.2-0.8,1.9-0.8
	c0.7,0,1.4,0.3,1.9,0.8c0.5,0.5,0.8,1.2,0.8,1.9c0,0.7-0.3,1.4-0.8,1.9c-0.5,0.5-1.2,0.8-1.9,0.8C75,23.5,74.3,23.3,73.8,22.8z
	 M79.8,24.8c0,0.1,0.1,0.2,0.2,0.2c0.7,0.1,1.4-0.1,1.9-0.5c0.7-0.8,1.1-1.8,1-2.9v-3.3h2.4v6.5c0,0.1,0.1,0.2,0.2,0.2h1.2
	c0.1,0,0.2-0.1,0.2-0.2c0,0,0,0,0,0v-7.8c0-0.1-0.1-0.2-0.2-0.2c0,0,0,0,0,0h-5.2c-0.1,0-0.2,0.1-0.2,0.2v4.7c0,1.4-0.4,1.9-1.2,1.9
	c-0.1,0-0.2,0.1-0.2,0.2c0,0,0,0,0,0L79.8,24.8z M95.1,23.9c0.8-0.8,1.3-1.9,1.3-3.1c0-1.1-0.4-2.3-1.3-3c-0.8-0.8-1.9-1.3-3-1.3
	c-1.1,0-2.2,0.4-3,1.3c-0.8,0.8-1.3,1.9-1.2,3c0,1.1,0.4,2.3,1.2,3.1c0.8,0.8,1.9,1.3,3,1.2C93.2,25.1,94.3,24.7,95.1,23.9z
	 M90.1,22.8c-0.5-0.5-0.8-1.2-0.8-1.9c0-0.7,0.3-1.4,0.8-1.9c0.5-0.5,1.2-0.8,1.9-0.8c0.7,0,1.4,0.3,1.9,0.8
	c0.5,0.5,0.8,1.2,0.8,1.9c0,0.7-0.3,1.4-0.8,1.9c-0.5,0.5-1.2,0.8-1.9,0.8C91.3,23.6,90.6,23.3,90.1,22.8z M96.1,16.9V18
	c0,0.1,0.1,0.2,0.2,0.2h2v6.5c0,0.1,0.1,0.2,0.2,0.2h1.2c0.1,0,0.2-0.1,0.2-0.2v-6.5h2c0.1,0,0.2-0.1,0.2-0.2v-1.1
	c0-0.1-0.1-0.2-0.2-0.2c0,0,0,0,0,0h-5.7C96.2,16.7,96.1,16.8,96.1,16.9C96.1,16.9,96.1,16.9,96.1,16.9L96.1,16.9z M109.3,23.9
	c0.8-0.8,1.3-1.9,1.3-3.1c0-1.1-0.4-2.3-1.3-3c-0.8-0.8-1.9-1.3-3-1.3c-1.1,0-2.2,0.4-3,1.3c-0.8,0.8-1.3,1.9-1.2,3
	c0,1.1,0.4,2.3,1.2,3.1c0.8,0.8,1.9,1.3,3,1.2C107.4,25.1,108.5,24.7,109.3,23.9z M104.4,22.8c-0.5-0.5-0.8-1.2-0.8-1.9
	c0-0.7,0.3-1.4,0.8-1.9c0.5-0.5,1.2-0.8,1.9-0.8c0.7,0,1.4,0.3,1.9,0.8c0.5,0.5,0.8,1.2,0.8,1.9c0,0.7-0.3,1.4-0.8,1.9
	c-0.5,0.5-1.2,0.8-1.9,0.8C105.6,23.5,104.9,23.3,104.4,22.8z M117.9,24.7v-7.8c0-0.1-0.1-0.2-0.2-0.2c0,0,0,0,0,0h-0.9
	c-0.1,0-0.1,0-0.2,0.1l-3.5,5v-4.8c0-0.1-0.1-0.2-0.2-0.2c0,0,0,0,0,0h-1.2c-0.1,0-0.2,0.1-0.2,0.2c0,0,0,0,0,0v7.8
	c0,0.1,0.1,0.2,0.2,0.2h0.9c0.1,0,0.1,0,0.2-0.1l3.5-4.9v4.8c0,0.1,0.1,0.2,0.2,0.2h1.2C117.8,25,117.9,24.9,117.9,24.7L117.9,24.7z
	 M116.4,15.7v-0.9c0-0.1-0.1-0.2-0.2-0.2c0,0,0,0,0,0h-3c-0.1,0-0.2,0.1-0.2,0.2c0,0,0,0,0,0v0.9c0,0.1,0.1,0.2,0.2,0.2h3
	C116.3,15.9,116.4,15.8,116.4,15.7z M31.4,39.9c1.4,0,2.7-0.6,3.4-1.8c0.1-0.1,0-0.2-0.1-0.3c0,0,0,0,0,0l-1-0.6
	c-0.1,0-0.2,0-0.3,0.1c-0.5,0.7-1.2,1-2,1c-0.7,0-1.4-0.2-1.9-0.8c-0.5-0.5-0.8-1.2-0.7-1.9c0-0.7,0.2-1.4,0.7-2
	c0.5-0.5,1.2-0.8,1.9-0.8c0.8,0,1.6,0.3,2,1c0.1,0.1,0.2,0.1,0.3,0.1l1-0.6c0.1-0.1,0.1-0.2,0.1-0.3c0,0,0,0,0,0
	c-0.8-1.1-2.1-1.8-3.4-1.7c-1.2,0-2.3,0.4-3.1,1.2c-0.8,0.8-1.2,1.9-1.2,3.1c0,1.1,0.4,2.2,1.2,3.1C29.1,39.5,30.2,39.9,31.4,39.9z
	 M37.3,36.3h2.9c0.1,0,0.2-0.1,0.2-0.2V35c0-0.1-0.1-0.2-0.2-0.2c0,0,0,0,0,0h-2.9V33h3.2c0.1,0,0.2-0.1,0.2-0.2v-1.1
	c0-0.1-0.1-0.2-0.2-0.2c0,0,0,0,0,0h-4.6c-0.1,0-0.2,0.1-0.2,0.2c0,0,0,0,0,0v7.8c0,0.1,0.1,0.2,0.2,0.2h4.7c0.1,0,0.2-0.1,0.2-0.2
	v-1.1c0-0.1-0.1-0.2-0.2-0.2c0,0,0,0,0,0h-3.3L37.3,36.3z M41.7,31.7v7.8c0,0.1,0.1,0.2,0.2,0.2h1.2c0.1,0,0.2-0.1,0.2-0.2V37h1.5
	c0.7,0,1.5-0.3,2-0.8c0.5-0.5,0.8-1.2,0.8-2c0-0.7-0.3-1.5-0.8-2c-0.5-0.5-1.3-0.8-2-0.8h-2.9C41.8,31.5,41.7,31.5,41.7,31.7z
	 M43.3,35.5V33h1.5c0.7,0,1.2,0.5,1.2,1.2c0,0,0,0,0,0.1c0,0.7-0.5,1.2-1.1,1.2c0,0,0,0-0.1,0H43.3z M47.6,31.7v1.1
	c0,0.1,0.1,0.2,0.2,0.2h2v6.5c0,0.1,0.1,0.2,0.2,0.2h1.2c0.1,0,0.2-0.1,0.2-0.2V33h2c0.1,0,0.2-0.1,0.2-0.2v-1.1
	c0-0.1-0.1-0.2-0.2-0.2c0,0,0,0,0,0h-5.7C47.7,31.4,47.6,31.5,47.6,31.7L47.6,31.7z M60.7,39.5v-7.8c0-0.1-0.1-0.2-0.2-0.2
	c0,0,0,0,0,0h-0.9c-0.1,0-0.1,0-0.2,0.1l-3.5,5v-4.8c0-0.1-0.1-0.2-0.2-0.2c0,0,0,0,0,0h-1.2c-0.1,0-0.2,0.1-0.2,0.2c0,0,0,0,0,0
	v7.8c0,0.1,0.1,0.2,0.2,0.2h0.9c0.1,0,0.1,0,0.2-0.1l3.5-4.9v4.8c0,0.1,0.1,0.2,0.2,0.2h1.2C60.6,39.7,60.7,39.6,60.7,39.5z
	 M66.9,38.9c1-0.1,2-0.4,2.8-1.1c0.7-0.6,1.1-1.4,1-2.3c0-0.9-0.4-1.7-1-2.3c-0.8-0.6-1.7-1-2.8-1.1v-0.7c0-0.1-0.1-0.2-0.2-0.2
	c0,0,0,0,0,0h-1.2c-0.1,0-0.2,0.1-0.2,0.2v0.7c-1,0.1-2,0.4-2.8,1.1c-0.7,0.6-1,1.4-1,2.3c0,0.9,0.3,1.7,1,2.3
	c0.8,0.6,1.7,1,2.8,1.1v0.7c0,0.1,0.1,0.2,0.2,0.2h1.2c0.1,0,0.2-0.1,0.2-0.2L66.9,38.9z M66.9,33.7c1.4,0.2,2.1,0.8,2.1,1.9
	s-0.7,1.7-2.1,1.9V33.7z M63.1,35.6c0-1.1,0.7-1.7,2.1-1.9v3.7C63.9,37.3,63.1,36.7,63.1,35.6L63.1,35.6z M77.8,39.5v-7.8
	c0-0.1-0.1-0.2-0.2-0.2c0,0,0,0,0,0h-0.9c-0.1,0-0.1,0-0.2,0.1l-3.5,5v-4.8c0-0.1-0.1-0.2-0.2-0.2c0,0,0,0,0,0h-1.2
	c-0.1,0-0.2,0.1-0.2,0.2c0,0,0,0,0,0v7.8c0,0.1,0.1,0.2,0.2,0.2h0.9c0.1,0,0.1,0,0.2-0.1l3.5-4.9v4.8c0,0.1,0.1,0.2,0.2,0.2h1.2
	C77.7,39.7,77.8,39.6,77.8,39.5L77.8,39.5z M85.1,31.4h-1.2c-0.1,0-0.2,0.1-0.2,0.2v6.5h-2.9v-6.5c0-0.1-0.1-0.2-0.2-0.2l0,0h-1.2
	c-0.1,0-0.2,0.1-0.2,0.2v7.8c0,0.1,0.1,0.2,0.2,0.2h5.2v1.4c0,0.1,0.1,0.2,0.2,0.2h1.2c0.1,0,0.2-0.1,0.2-0.2v-2.7
	c0-0.1-0.1-0.2-0.2-0.2c0,0,0,0,0,0h-0.7v-6.5C85.3,31.5,85.2,31.4,85.1,31.4C85.1,31.4,85.1,31.4,85.1,31.4z M93.4,39.5v-7.8
	c0-0.1-0.1-0.2-0.2-0.2c0,0,0,0,0,0h-0.9c-0.1,0-0.1,0-0.2,0.1l-3.5,5v-4.8c0-0.1-0.1-0.2-0.2-0.2c0,0,0,0,0,0h-1.2
	c-0.1,0-0.2,0.1-0.2,0.2c0,0,0,0,0,0v7.8c0,0.1,0.1,0.2,0.2,0.2h0.9c0.1,0,0.1,0,0.2-0.1l3.5-4.9v4.8c0,0.1,0.1,0.2,0.2,0.2h1.2
	C93.3,39.7,93.4,39.6,93.4,39.5z M94.7,31.7v7.8c0,0.1,0.1,0.2,0.2,0.2h1.2c0.1,0,0.2-0.1,0.2-0.2V37h1.5c0.7,0,1.5-0.3,2-0.8
	c0.5-0.5,0.8-1.2,0.8-2c0-0.7-0.3-1.5-0.8-2c-0.5-0.5-1.3-0.8-2-0.8h-2.9C94.8,31.5,94.7,31.5,94.7,31.7L94.7,31.7z M96.3,35.5V33
	h1.4c0.7,0,1.2,0.5,1.2,1.2c0,0,0,0,0,0.1c0,0.7-0.5,1.2-1.1,1.2c0,0,0,0-0.1,0H96.3z M108.3,38.6c0.8-0.8,1.3-1.9,1.3-3.1
	c0-2.4-1.9-4.3-4.2-4.3c0,0,0,0,0,0c-2.3,0-4.3,1.9-4.3,4.2c0,0,0,0.1,0,0.1c0,2.3,1.8,4.3,4.2,4.3c0,0,0.1,0,0.1,0
	C106.4,39.9,107.5,39.4,108.3,38.6z M103.3,37.5c-0.5-0.5-0.8-1.2-0.8-1.9c0-0.7,0.3-1.4,0.8-1.9c1.1-1,2.7-1,3.8,0
	c0.5,0.5,0.8,1.2,0.8,1.9c0,0.7-0.3,1.4-0.8,1.9c-0.5,0.5-1.2,0.8-1.9,0.8C104.5,38.3,103.8,38,103.3,37.5z M115.4,35.4
	c0.5-0.4,0.8-1,0.8-1.7c0-0.6-0.3-1.2-0.7-1.7c-0.5-0.4-1.1-0.7-1.8-0.7h-3c-0.1,0-0.2,0.1-0.2,0.2c0,0,0,0,0,0v7.8
	c0,0.1,0.1,0.2,0.2,0.2h3.3c0.7,0,1.3-0.2,1.8-0.7c0.5-0.4,0.8-1.1,0.7-1.7C116.5,36.5,116.1,35.8,115.4,35.4z M113.7,33
	c0.5,0,0.9,0.4,0.9,0.9s-0.4,0.9-0.9,0.9H112V33L113.7,33z M112,38.2v-1.9h1.9c0.5,0,1,0.4,1,1c0,0.5-0.4,1-1,1H112z M124.2,39.4
	l-2.8-7.8c0-0.1-0.1-0.1-0.2-0.1h-1.7c-0.1,0-0.2,0.1-0.2,0.1l-2.7,7.8c0,0.1,0,0.2,0.1,0.3c0,0,0,0,0.1,0h1.3
	c0.1,0,0.2-0.1,0.2-0.2l0.4-1.3h3.3l0.4,1.3c0,0.1,0.1,0.1,0.2,0.2h1.3C124.1,39.7,124.2,39.6,124.2,39.4
	C124.2,39.5,124.2,39.4,124.2,39.4L124.2,39.4z M120.4,33.3l1.1,3.4h-2.3L120.4,33.3z M129.4,34.7h-3.1v-3.1c0-0.1-0.1-0.2-0.2-0.2
	c0,0,0,0,0,0H125c-0.1,0-0.2,0.1-0.2,0.2c0,0,0,0,0,0v7.8c0,0.1,0.1,0.2,0.2,0.2h1.2c0.1,0,0.2-0.1,0.2-0.2v-3.2h3.1v3.2
	c0,0.1,0.1,0.2,0.2,0.2h1.2c0.1,0,0.2-0.1,0.2-0.2v-7.8c0-0.1-0.1-0.2-0.2-0.2c0,0,0,0,0,0h-1.2c-0.1,0-0.2,0.1-0.2,0.2c0,0,0,0,0,0
	V34.7z M137,34.7H134v-3.1c0-0.1-0.1-0.2-0.2-0.2c0,0,0,0,0,0h-1.2c-0.1,0-0.2,0.1-0.2,0.2c0,0,0,0,0,0v7.8c0,0.1,0.1,0.2,0.2,0.2
	h1.2c0.1,0,0.2-0.1,0.2-0.2v-3.2h3.1v3.2c0,0.1,0.1,0.2,0.2,0.2h1.2c0.1,0,0.2-0.1,0.2-0.2v-7.8c0-0.1-0.1-0.2-0.2-0.2c0,0,0,0,0,0
	h-1.2c-0.1,0-0.2,0.1-0.2,0.2c0,0,0,0,0,0V34.7z M141.6,35.7h1.5c0.7,0,1.2,0.6,1.2,1.3c0,0.7-0.5,1.2-1.2,1.2h-1.5L141.6,35.7z
	 M141.6,34.2v-2.5c0-0.1-0.1-0.2-0.2-0.2c0,0,0,0,0,0h-1.2c-0.1,0-0.2,0.1-0.2,0.2v7.8c0,0.1,0.1,0.2,0.2,0.2h2.9
	c0.7,0,1.5-0.3,2-0.8c1.1-1.1,1.1-2.9,0-3.9c-0.5-0.5-1.3-0.8-2-0.8L141.6,34.2z M146.8,39.7h1.2c0.1,0,0.2-0.1,0.2-0.2v-7.8
	c0-0.1-0.1-0.2-0.2-0.2c0,0,0,0,0,0h-1.2c-0.1,0-0.2,0.1-0.2,0.2v7.8C146.6,39.6,146.7,39.7,146.8,39.7z M155.9,39.5v-7.8
	c0-0.1-0.1-0.2-0.2-0.2c0,0,0,0,0,0h-0.9c-0.1,0-0.1,0-0.2,0.1l-3.5,5v-4.8c0-0.1-0.1-0.2-0.2-0.2c0,0,0,0,0,0h-1.2
	c-0.1,0-0.2,0.1-0.2,0.2c0,0,0,0,0,0v7.8c0,0.1,0.1,0.2,0.2,0.2h0.9c0.1,0,0.1,0,0.2-0.1l3.5-4.9v4.8c0,0.1,0.1,0.2,0.2,0.2h1.2
	C155.8,39.7,155.9,39.6,155.9,39.5z M154.4,30.5v-0.9c0-0.1-0.1-0.2-0.2-0.2c0,0,0,0,0,0h-3c-0.1,0-0.2,0.1-0.2,0.2c0,0,0,0,0,0v0.9
	c0,0.1,0.1,0.2,0.2,0.2h3C154.3,30.7,154.4,30.6,154.4,30.5z M68.4,46.4v7.8c0,0.1,0.1,0.2,0.2,0.2h1.2c0.1,0,0.2-0.1,0.2-0.2v-6.5
	h2.9v6.5c0,0.1,0.1,0.2,0.2,0.2h1.2c0.1,0,0.2-0.1,0.2-0.2v-7.8c0-0.1-0.1-0.2-0.2-0.2c0,0,0,0,0,0h-5.7
	C68.5,46.2,68.4,46.3,68.4,46.4C68.4,46.4,68.4,46.4,68.4,46.4z M82.7,54.2L80,46.3c0-0.1-0.1-0.1-0.2-0.1h-1.7
	c-0.1,0-0.2,0.1-0.2,0.1l-2.7,7.8c0,0.1,0,0.2,0.1,0.3c0,0,0,0,0.1,0h1.3c0.1,0,0.2-0.1,0.2-0.2l0.4-1.3h3.3l0.4,1.3
	c0,0.1,0.1,0.1,0.2,0.2h1.3C82.6,54.5,82.7,54.4,82.7,54.2C82.7,54.2,82.7,54.2,82.7,54.2L82.7,54.2z M78.9,48.1l1.1,3.4h-2.3
	L78.9,48.1z M83.3,46.4v7.8c0,0.1,0.1,0.2,0.2,0.2h1.2c0.1,0,0.2-0.1,0.2-0.2v-2.5h1.5c0.7,0,1.5-0.3,2-0.8c0.5-0.5,0.8-1.2,0.8-2
	c0-0.7-0.3-1.5-0.8-2c-0.5-0.5-1.3-0.8-2-0.8h-2.9C83.4,46.2,83.3,46.3,83.3,46.4L83.3,46.4z M84.9,50.2v-2.5h1.5
	c0.7,0,1.2,0.5,1.2,1.2c0,0,0,0,0,0.1c0,0.7-0.5,1.2-1.1,1.2c0,0,0,0-0.1,0L84.9,50.2z M89.2,46.4v1.1c0,0.1,0.1,0.2,0.2,0.2h2v6.5
	c0,0.1,0.1,0.2,0.2,0.2h1.2c0.1,0,0.2-0.1,0.2-0.2v-6.5h2c0.1,0,0.2-0.1,0.2-0.2v-1.1c0-0.1-0.1-0.2-0.2-0.2c0,0,0,0,0,0h-5.7
	C89.3,46.2,89.2,46.3,89.2,46.4C89.2,46.4,89.2,46.4,89.2,46.4L89.2,46.4z M100.6,49.5h-3.1v-3.1c0-0.1-0.1-0.2-0.2-0.2c0,0,0,0,0,0
	h-1.2c-0.1,0-0.2,0.1-0.2,0.2c0,0,0,0,0,0v7.8c0,0.1,0.1,0.2,0.2,0.2h1.2c0.1,0,0.2-0.1,0.2-0.2V51h3.1v3.2c0,0.1,0.1,0.2,0.2,0.2
	h1.2c0.1,0,0.2-0.1,0.2-0.2v-7.8c0-0.1-0.1-0.2-0.2-0.2c0,0,0,0,0,0h-1.2c-0.1,0-0.2,0.1-0.2,0.2c0,0,0,0,0,0V49.5z M105.5,45.4
	c0.3-0.3,0.3-0.8,0-1.1c0,0,0,0,0,0c-0.3-0.3-0.8-0.3-1.1,0c0,0,0,0,0,0c-0.3,0.3-0.3,0.8,0,1.1c0,0,0,0,0,0
	C104.7,45.7,105.2,45.7,105.5,45.4L105.5,45.4z M107.7,45.4c0.3-0.3,0.3-0.8,0-1.1c0,0,0,0,0,0c-0.3-0.3-0.8-0.3-1.1,0c0,0,0,0,0,0
	c-0.3,0.3-0.3,0.8,0,1.1c0,0,0,0,0,0C106.9,45.7,107.4,45.7,107.7,45.4L107.7,45.4z M105.2,51.1h2.9c0.1,0,0.2-0.1,0.2-0.2v-1.1
	c0-0.1-0.1-0.2-0.2-0.2c0,0,0,0,0,0h-2.9v-1.8h3.2c0.1,0,0.2-0.1,0.2-0.2v-1.1c0-0.1-0.1-0.2-0.2-0.2c0,0,0,0,0,0h-4.6
	c-0.1,0-0.2,0.1-0.2,0.2c0,0,0,0,0,0v7.8c0,0.1,0.1,0.2,0.2,0.2h4.7c0.1,0,0.2-0.1,0.2-0.2v-1.1c0-0.1-0.1-0.2-0.2-0.2c0,0,0,0,0,0
	h-3.3V51.1z M109.5,46.4v7.8c0,0.1,0.1,0.2,0.2,0.2h1.2c0.1,0,0.2-0.1,0.2-0.2v-2.5h1.5c0.7,0,1.5-0.3,2-0.8c1.1-1.1,1.1-2.9,0-3.9
	c-0.5-0.5-1.3-0.8-2-0.8h-2.9C109.6,46.2,109.5,46.3,109.5,46.4L109.5,46.4z M111.2,50.2v-2.5h1.5c0.7,0,1.2,0.6,1.2,1.3
	c0,0.7-0.5,1.2-1.2,1.2L111.2,50.2z"/>
</svg>
