<?xml version="1.0" encoding="utf-8"?>
<!-- Generator: Adobe Illustrator 22.0.1, SVG Export Plug-In . SVG Version: 6.00 Build 0)  -->
<svg version="1.1" id="Слой_1" xmlns="http://www.w3.org/2000/svg" xmlns:xlink="http://www.w3.org/1999/xlink" x="0px" y="0px"
	 viewBox="0 0 181 51.2" style="enable-background:new 0 0 181 51.2;" xml:space="preserve">
<style type="text/css">
	.st0{fill:#121518;}
	.st1{fill:#E55030;}
</style>
<path class="st0" d="M-0.3-0.4v52h181.5v-52H-0.3z M1.8,1.6h177.5v31.4H48.8L34.9,49.6H1.8V1.6z M77.7,38.8H79l-2.8,2.8l2.9,3h-1.3
	l-2.7-2.8v2.8h-1v-5.9h1v2.6L77.7,38.8z M84.5,44c-0.6,0.6-1.4,0.9-2.2,0.9c-0.8,0-1.6-0.3-2.2-0.9c-0.6-0.6-0.9-1.4-0.9-2.2
	c0-0.8,0.3-1.6,0.9-2.2c0.6-0.6,1.4-0.9,2.2-0.9c0.8,0,1.6,0.3,2.2,0.9c0.6,0.6,0.9,1.4,0.9,2.2C85.4,42.6,85.1,43.4,84.5,44
	L84.5,44z M89.6,43.4h-0.1l-1.9-3v4.3h-1v-5.9h1.1l1.8,3l1.9-3h1.1v5.9h-1v-4.3L89.6,43.4z M95.1,39.8v4.9h-1v-5.9h5.1v5.9h-1v-4.9
	H95.1z M103.5,43.9c0.7,0.1,1.3-0.3,1.7-0.9l0.9,0.5c-0.6,0.9-1.5,1.4-2.6,1.3c-0.8,0-1.7-0.3-2.3-0.9c-0.6-0.6-0.9-1.4-0.9-2.2
	c0-0.8,0.3-1.6,0.9-2.2c0.6-0.6,1.4-0.9,2.2-0.9c0.8,0,1.6,0.3,2.1,0.9c0.5,0.6,0.8,1.4,0.8,2.2c0,0.2,0,0.3,0,0.5h-4.9
	C101.6,43.3,102.5,44,103.5,43.9z M106.7,39.8v-1h5v1h-2v4.9h-1v-4.9H106.7z M115.2,43.9c0.7,0.1,1.3-0.3,1.7-0.9l0.9,0.5
	c-0.6,0.9-1.5,1.4-2.6,1.3c-0.8,0-1.7-0.3-2.3-0.9c-0.6-0.6-0.9-1.4-0.9-2.2c0-0.8,0.3-1.6,0.9-2.2c0.6-0.6,1.4-0.9,2.2-0.9
	c0.8,0,1.6,0.3,2.1,0.9c0.5,0.6,0.8,1.4,0.8,2.2c0,0.2,0,0.3,0,0.5h-4.9C113.2,43.3,114.2,44,115.2,43.9z M123.3,41.3v-2.5h1v5.9h-1
	v-2.5h-3v2.5h-1v-5.9h1v2.5H123.3z M129.8,43.7v-4.9h1v4.9h1v2.6h-1v-1.6h-4.9v-5.9h1v4.9H129.8z M137.1,38.8h0.8v5.9h-1v-4.1
	l-3.3,4.1h-0.8v-5.9h1V43L137.1,38.8z M139.4,40.7c0-0.5,0.2-1,0.6-1.4c0.4-0.4,0.9-0.6,1.4-0.5h2.5v5.9h-1v-2.1H142l-1.6,2.1h-1.2
	l1.7-2.2C140,42.4,139.4,41.6,139.4,40.7z M83.8,40.3c0.4,0.4,0.6,0.9,0.6,1.5c0,0.6-0.2,1.1-0.6,1.5c-0.4,0.4-0.9,0.6-1.5,0.6
	c-0.6,0-1.1-0.2-1.5-0.6c-0.4-0.4-0.6-0.9-0.6-1.5c0-0.6,0.2-1.1,0.6-1.5c0.4-0.4,0.9-0.6,1.5-0.6C82.8,39.7,83.4,39.9,83.8,40.3z
	 M141.5,41.7c-0.5,0-1-0.4-1-0.9c0,0,0,0,0-0.1c0-0.5,0.5-1,1-1c0,0,0,0,0.1,0h1.5v1.9H141.5z M117,41.3h-3.9c0.1-1,1-1.8,2-1.7
	C116.1,39.6,116.9,40.4,117,41.3z M105.3,41.3h-3.9c0.1-1,1-1.8,2-1.7C104.4,39.6,105.3,40.4,105.3,41.3z M75.4,11.7h0.6
	c0.9,0,1.6-0.2,2-0.6s0.7-1,0.7-1.8c0-0.7-0.2-1.3-0.7-1.7s-1.1-0.6-2-0.6h-2.3v7.1h1.5V11.7z M75.4,8.4h0.7c0.4,0,0.7,0.1,0.9,0.3
	s0.3,0.4,0.3,0.8c0,0.4-0.1,0.6-0.3,0.8s-0.6,0.3-1,0.3h-0.5V8.4z M84.2,14.3h-4.1V7.1h4.1v1.2h-2.6v1.6H84v1.2h-2.4V13h2.6V14.3z
	 M94.6,14.3h-9V7.1h1.5V13h2.2V7.1h1.5V13H93V7.1h1.5V14.3z M100.4,14.3h-4.1V7.1h4.1v1.2h-2.6v1.6h2.4v1.2h-2.4V13h2.6V14.3z
	 M103.3,14.3h-1.5V7.1h1.5v2.8h2.8V7.1h1.5v7.1h-1.5v-3.1h-2.8V14.3z M111.1,14.3h-1.8V7.1h1.4v3.4l0,0.9l0,1h0l3.3-5.4h1.8v7.1
	h-1.3v-3.4c0-0.5,0-1.1,0.1-2h0L111.1,14.3z M118.2,14.3l1.7-2.7h0.9v2.7h1.5V7.1H120c-0.9,0-1.5,0.2-2,0.5
	c-0.5,0.4-0.7,0.9-0.7,1.5c0,0.5,0.1,0.9,0.3,1.2s0.5,0.6,0.9,0.8l-2,3.1H118.2z M119.1,8.6c0.2-0.1,0.5-0.2,0.9-0.2h0.7v1.9h-0.7
	c-0.4,0-0.7-0.1-1-0.3s-0.3-0.4-0.3-0.7C118.8,8.9,118.9,8.7,119.1,8.6z M74.5,27.3H79v2.1h1.5V26h-1v-5.9h-4.2
	c-0.1,1.1-0.3,2.1-0.6,3s-0.6,1.9-1.1,2.8H73v3.3h1.5V27.3z M76,23.8c0.2-0.8,0.4-1.6,0.5-2.4H78V26h-2.8
	C75.5,25.3,75.8,24.6,76,23.8z M82.6,20.1h4.5v7.1h-1.5v-5.9h-1.7L83.7,22c-0.2,1.7-0.4,2.8-0.5,3.5s-0.4,1.1-0.7,1.4
	s-0.7,0.4-1.2,0.4c-0.3,0-0.5,0-0.7-0.1V26c0.2,0.1,0.4,0.1,0.5,0.1c0.2,0,0.3-0.1,0.4-0.2s0.2-0.5,0.3-0.9s0.2-1.1,0.4-2.1
	S82.5,21,82.6,20.1z M89.3,20.7c-0.5,0.4-0.7,0.9-0.7,1.5c0,0.5,0.1,0.9,0.3,1.2s0.5,0.6,0.9,0.8l-2,3.1h1.7l1.7-2.7h0.9v2.7h1.5
	v-7.1h-2.3C90.4,20.1,89.8,20.3,89.3,20.7z M92.1,21.4v1.9h-0.7c-0.4,0-0.7-0.1-1-0.3s-0.3-0.4-0.3-0.7c0-0.3,0.1-0.6,0.3-0.7
	s0.5-0.2,0.9-0.2H92.1z M99.9,20.1l1.7,5.5h0l1.8-5.5h2.1v7.1h-1.4v-3.4c0-0.2,0-0.3,0-0.6c0-0.2,0-0.8,0.1-1.7h0l-1.8,5.6h-1.4
	l-1.7-5.6h0c0.1,1.1,0.1,1.9,0.1,2.3v3.3h-1.4v-7.1H99.9z M107.2,20.1h4.1v1.2h-2.6v1.6h2.4v1.2h-2.4V26h2.6v1.3h-4.1V20.1z
	 M118.3,20.1h-4.2c-0.1,1.1-0.3,2.1-0.6,3s-0.6,1.9-1.1,2.8h-0.6v3.3h1.5v-2.1h4.5v2.1h1.5V26h-1V20.1z M116.7,26H114
	c0.3-0.7,0.6-1.4,0.8-2.3c0.2-0.8,0.4-1.6,0.5-2.4h1.5V26z M121.5,25.5l3.3-5.4h1.8v7.1h-1.3v-3.4c0-0.5,0-1.1,0.1-2h0l-3.3,5.5
	h-1.8v-7.1h1.4v3.4l0,0.9L121.5,25.5L121.5,25.5z M133.6,27.3h-5.3v-7.1h1.5V26h2.6v-5.9h1.5v5.9h1.1v3.3h-1.5V27.3z M137.9,27.3
	H136v-7.1h1.4v3.4l0,0.9l0,1h0l3.3-5.4h1.8v7.1h-1.3v-3.4c0-0.5,0-1.1,0.1-2h0L137.9,27.3z M145.7,27.3h-1.5v-7.1h1.5v2.8h2.8v-2.8
	h1.5v7.1h-1.5v-3.1h-2.8V27.3z M159,27.3h-1.5v-7.1h1.5V27.3z M155.9,26.7c0.5-0.4,0.7-0.9,0.7-1.7c0-0.7-0.3-1.2-0.8-1.6
	c-0.5-0.4-1.2-0.6-2.1-0.6h-0.5v-2.7h-1.5v7.1h2C154.6,27.3,155.4,27.1,155.9,26.7z M153.2,26v-1.9h0.3c0.6,0,1,0.1,1.2,0.2
	c0.2,0.1,0.3,0.4,0.3,0.7s-0.1,0.6-0.3,0.7s-0.6,0.2-1.1,0.2H153.2z"/>
<path class="st1" d="M21.2,14.8c0,1.1-0.1,11.2,0,11.7c0.2,1,1.1,1.8,2.1,1.9H24c1.4-0.1,2.4-1.4,2.2-2.7c-0.1-0.6-0.3-1.1-0.7-1.5
	c-1.5-1.5-1.6,0.8-1.6-2.6c1.1,0,2.1,0.5,2.9,1.2c0.2,0.2,0.3,0.4,0.4,0.5c0.2,0.2,0.3,0.4,0.4,0.7c0.6,1.2,0.6,2.7,0,4
	c-1.1,2.2-3.7,3-5.9,2c-0.5-0.3-1-0.6-1.3-1c-0.9-1-1.3-2.4-1.1-3.7v-9.7c-0.4,0.1-0.6,0.2-0.9,0.3c0,3.4,0,6.9,0,10.3
	c0.1,1.3,0.6,2.6,1.5,3.6c0.4,0.4,0.9,0.8,1.5,1.1c2.6,1.3,5.8,0.2,7.1-2.4c1-2,0.6-4.5-1-6.1c-0.9-1-2.2-1.5-3.5-1.5v-1.9
	c1.9,0.1,3.6,0.9,5,2.2c2.8,2.8,2.8,7.4-0.1,10.2c-0.4,0.4-0.8,0.7-1.3,1c-1.7,1.1-3.7,1.4-5.6,0.9c-3-0.8-5.1-3.3-5.4-6.4L16.4,22
	v-4.8c-2.1,1.4-4.1,5.3-4.1,8.2c-0.1,1.9,0.2,3.8,1.1,5.5c0.6,1.2,1.3,2.2,2.2,3.1c0.9,0.9,1.9,1.6,3.1,2.2c1.4,0.7,2.9,1,4.4,1.1h1
	c2.2-0.1,4.4-0.8,6.2-2.1c0.3-0.2,0.5-0.4,0.8-0.6c1.3-1.1,2.3-2.5,3-4.1c1.6-3.6,1.2-7.8-1-11c-0.5-0.7-1-1.4-1.7-1.9
	c-0.4-0.4-0.8-0.7-1.2-1c-1.9-1.3-4.2-2-6.5-2.1C22.8,14.5,22,14.7,21.2,14.8z"/>
</svg>
