<?xml version="1.0" encoding="utf-8"?>
<!-- Generator: Adobe Illustrator 22.0.1, SVG Export Plug-In . SVG Version: 6.00 Build 0)  -->
<svg version="1.1" id="Group_596" xmlns="http://www.w3.org/2000/svg" xmlns:xlink="http://www.w3.org/1999/xlink" x="0px" y="0px"
	 viewBox="0 0 400 400.1" style="enable-background:new 0 0 400 400.1;" xml:space="preserve">
<style type="text/css">
	.st0{fill:#E55030;}
</style>
<path id="Union_181" class="st0" d="M190.4,399.9c-27-1.1-53.5-7.7-77.9-19.3c-19.9-10.1-38.1-23.2-54-38.8
	c-16.1-16-29.3-34.7-39.1-55.2c-14.7-29.9-21.2-63.1-19-96.4C3.4,134.3,29.5,82,72.5,46.1v84.5l1.7,80.8
	c4.4,53.4,42.1,98.1,93.9,111.6c33.6,9,69.5,3.4,98.9-15.2c59.1-36.7,77.3-114.4,40.6-173.6c-5-8-10.9-15.5-17.5-22.2
	C267,88.7,236,75,203.2,73.7v34.3c23.5,0.3,45.9,10.1,62.1,27.2c36.3,35.6,36.9,93.9,1.3,130.2c-1,1-1.9,1.9-2.9,2.8
	c-28,26.8-69.9,33.3-104.7,16.1c-9.4-5.1-18.1-11.4-26-18.6c-15.9-17.3-25.2-39.6-26.4-63.1c-0.4-60.1,0-120.3,0-180.5
	c5.8-1.2,9.1-3.7,15.7-4.9V187c-2.7,23.3,4.3,46.7,19.3,64.7c28,32.1,76.7,35.3,108.8,7.3c7.5-6.5,13.6-14.5,18.1-23.4
	c11.3-21.8,11.3-47.8,0-69.7c-1.6-4.4-4-8.4-7-11.9c-2.3-3.3-4.8-6.5-7.4-9.5c-14-12.9-32.1-20.3-51.1-21c0,35.3,0.3,35.2,6.2,35
	c4.1-0.1,10.7-0.3,21.8,10.7c17.1,17.1,17.2,44.8,0.1,61.9c-7.1,7.2-16.5,11.6-26.5,12.7h-10.3c-18.1-2.2-33-15.5-37.1-33.4
	c-2.1-9.5-0.8-186.7-0.8-205.6C170,4.1,183.6,0,199.3,0c41.1,0.4,81.1,13,115,36.2c7.3,5.2,14.2,11,20.6,17.3
	c11.5,9.8,21.5,21.2,29.7,33.8c39.7,56.9,46.6,130.4,18.1,193.7c-12,27.3-29.8,51.7-52.3,71.3c-4.2,3.7-9.1,7-13.6,10.3
	c-31.6,23.2-69.6,36.2-108.8,37.5L190.4,399.9z"/>
</svg>
